<?xml version="1.0" encoding="UTF-8" standalone="no"?>
<!DOCTYPE svg PUBLIC "-//W3C//DTD SVG 1.1//EN"
 "http://www.w3.org/Graphics/SVG/1.1/DTD/svg11.dtd">
<!-- Generated by graphviz version 8.0.5 (20230430.1635)
 -->
<!-- Title: classes Pages: 1 -->
<svg width="1546pt" height="474pt"
 viewBox="0.00 0.00 1546.00 473.50" xmlns="http://www.w3.org/2000/svg" xmlns:xlink="http://www.w3.org/1999/xlink">
<g id="graph0" class="graph" transform="scale(1 1) rotate(0) translate(4 469.5)">
<title>classes</title>
<polygon fill="white" stroke="none" points="-4,4 -4,-469.5 1542,-469.5 1542,4 -4,4"/>
<!-- tui_typer_tutor.core.typing.AtEndOfExpectedError -->
<g id="node1" class="node">
<title>tui_typer_tutor.core.typing.AtEndOfExpectedError</title>
<polygon fill="none" stroke="black" points="0,-78.75 0,-127.75 144.25,-127.75 144.25,-78.75 0,-78.75"/>
<text text-anchor="start" x="8" y="-110.45" font-family="Times,serif" font-size="14.00" fill="red">AtEndOfExpectedError</text>
<polyline fill="none" stroke="black" points="0,-103.25 144.25,-103.25"/>
<polyline fill="none" stroke="black" points="0,-103.25 144.25,-103.25"/>
<text text-anchor="start" x="70.25" y="-85.95" font-family="Times,serif" font-size="14.00" fill="red"> </text>
</g>
<!-- tui_typer_tutor.core.config.Config -->
<g id="node2" class="node">
<title>tui_typer_tutor.core.config.Config</title>
<polygon fill="none" stroke="black" points="162.12,-58.25 162.12,-148.25 262.12,-148.25 262.12,-58.25 162.12,-58.25"/>
<text text-anchor="start" x="193.38" y="-130.95" font-family="Times,serif" font-size="14.00">Config</text>
<polyline fill="none" stroke="black" points="162.12,-123.75 262.12,-123.75"/>
<text text-anchor="start" x="170.12" y="-106.45" font-family="Times,serif" font-size="14.00">seed_file : Path</text>
<text text-anchor="start" x="170.12" y="-89.95" font-family="Times,serif" font-size="14.00">seed_file : Path</text>
<polyline fill="none" stroke="black" points="162.12,-82.75 262.12,-82.75"/>
<text text-anchor="start" x="210.25" y="-65.45" font-family="Times,serif" font-size="14.00"> </text>
</g>
<!-- tui_typer_tutor.core.config.Config.Config -->
<g id="node3" class="node">
<title>tui_typer_tutor.core.config.Config.Config</title>
<polygon fill="none" stroke="black" points="280.5,-66.5 280.5,-140 379.75,-140 379.75,-66.5 280.5,-66.5"/>
<text text-anchor="start" x="311.38" y="-122.7" font-family="Times,serif" font-size="14.00">Config</text>
<polyline fill="none" stroke="black" points="280.5,-115.5 379.75,-115.5"/>
<text text-anchor="start" x="288.5" y="-98.2" font-family="Times,serif" font-size="14.00">env_prefix : str</text>
<polyline fill="none" stroke="black" points="280.5,-91 379.75,-91"/>
<text text-anchor="start" x="328.25" y="-73.7" font-family="Times,serif" font-size="14.00"> </text>
</g>
<!-- tui_typer_tutor.core.typing.ExpectedKey -->
<g id="node4" class="node">
<title>tui_typer_tutor.core.typing.ExpectedKey</title>
<polygon fill="none" stroke="black" points="447.75,-317.25 447.75,-407.25 536.5,-407.25 536.5,-317.25 447.75,-317.25"/>
<text text-anchor="start" x="455.75" y="-389.95" font-family="Times,serif" font-size="14.00">ExpectedKey</text>
<polyline fill="none" stroke="black" points="447.75,-382.75 536.5,-382.75"/>
<text text-anchor="start" x="461.38" y="-365.45" font-family="Times,serif" font-size="14.00">text</text>
<text text-anchor="start" x="461.38" y="-348.95" font-family="Times,serif" font-size="14.00">textual : str</text>
<polyline fill="none" stroke="black" points="447.75,-341.75 536.5,-341.75"/>
<text text-anchor="start" x="490.25" y="-324.45" font-family="Times,serif" font-size="14.00"> </text>
</g>
<!-- tui_typer_tutor.screens.help.Help -->
<g id="node5" class="node">
<title>tui_typer_tutor.screens.help.Help</title>
<polygon fill="none" stroke="black" points="604.25,-50 604.25,-156.5 822,-156.5 822,-50 604.25,-50"/>
<text text-anchor="start" x="700" y="-139.2" font-family="Times,serif" font-size="14.00">Help</text>
<polyline fill="none" stroke="black" points="604.25,-132 822,-132"/>
<text text-anchor="start" x="612.25" y="-114.7" font-family="Times,serif" font-size="14.00">BINDINGS : ClassVar[list[Binding]]</text>
<text text-anchor="start" x="612.25" y="-98.2" font-family="Times,serif" font-size="14.00">DEFAULT_CSS : ClassVar[str]</text>
<polyline fill="none" stroke="black" points="604.25,-91 822,-91"/>
<text text-anchor="start" x="637.38" y="-73.7" font-family="Times,serif" font-size="14.00">action_close(): None</text>
<text text-anchor="start" x="637.38" y="-57.2" font-family="Times,serif" font-size="14.00">compose(): ComposeResult</text>
</g>
<!-- tui_typer_tutor.core.typing.Keys -->
<g id="node6" class="node">
<title>tui_typer_tutor.core.typing.Keys</title>
<polygon fill="none" stroke="black" points="840.38,-25.25 840.38,-181.25 1013.88,-181.25 1013.88,-25.25 840.38,-25.25"/>
<text text-anchor="start" x="913.25" y="-163.95" font-family="Times,serif" font-size="14.00">Keys</text>
<polyline fill="none" stroke="black" points="840.38,-156.75 1013.88,-156.75"/>
<text text-anchor="start" x="848.38" y="-139.45" font-family="Times,serif" font-size="14.00">expected : list[ExpectedKey]</text>
<text text-anchor="start" x="848.38" y="-122.95" font-family="Times,serif" font-size="14.00">last_was_delete</text>
<text text-anchor="start" x="848.38" y="-106.45" font-family="Times,serif" font-size="14.00">last_was_delete : bool</text>
<text text-anchor="start" x="848.38" y="-89.95" font-family="Times,serif" font-size="14.00">typed</text>
<text text-anchor="start" x="848.38" y="-73.45" font-family="Times,serif" font-size="14.00">typed : list[TypedKey]</text>
<text text-anchor="start" x="848.38" y="-56.95" font-family="Times,serif" font-size="14.00">typed_all : list[TypedKey]</text>
<polyline fill="none" stroke="black" points="840.38,-49.75 1013.88,-49.75"/>
<text text-anchor="start" x="891.12" y="-32.45" font-family="Times,serif" font-size="14.00">store(): None</text>
</g>
<!-- tui_typer_tutor.screens.main.Main -->
<g id="node7" class="node">
<title>tui_typer_tutor.screens.main.Main</title>
<polygon fill="none" stroke="black" points="945.25,-259.5 945.25,-465 1163,-465 1163,-259.5 945.25,-259.5"/>
<text text-anchor="start" x="1039.5" y="-447.7" font-family="Times,serif" font-size="14.00">Main</text>
<polyline fill="none" stroke="black" points="945.25,-440.5 1163,-440.5"/>
<text text-anchor="start" x="953.25" y="-423.2" font-family="Times,serif" font-size="14.00">BINDINGS : ClassVar[list[Binding]]</text>
<text text-anchor="start" x="953.25" y="-406.7" font-family="Times,serif" font-size="14.00">DEFAULT_CSS : ClassVar[str]</text>
<text text-anchor="start" x="953.25" y="-390.2" font-family="Times,serif" font-size="14.00">keys</text>
<text text-anchor="start" x="953.25" y="-373.7" font-family="Times,serif" font-size="14.00">keys</text>
<text text-anchor="start" x="953.25" y="-357.2" font-family="Times,serif" font-size="14.00">metrics</text>
<text text-anchor="start" x="953.25" y="-340.7" font-family="Times,serif" font-size="14.00">metrics</text>
<polyline fill="none" stroke="black" points="945.25,-333.5 1163,-333.5"/>
<text text-anchor="start" x="972.38" y="-316.2" font-family="Times,serif" font-size="14.00">action_save_and_quit(): None</text>
<text text-anchor="start" x="972.38" y="-299.7" font-family="Times,serif" font-size="14.00">compose(): ComposeResult</text>
<text text-anchor="start" x="972.38" y="-283.2" font-family="Times,serif" font-size="14.00">on_key(event: Key): None</text>
<text text-anchor="start" x="972.38" y="-266.7" font-family="Times,serif" font-size="14.00">on_mount(): None</text>
</g>
<!-- tui_typer_tutor.core.typing.Keys&#45;&gt;tui_typer_tutor.screens.main.Main -->
<g id="edge4" class="edge">
<title>tui_typer_tutor.core.typing.Keys&#45;&gt;tui_typer_tutor.screens.main.Main</title>
<path fill="none" stroke="black" d="M949.08,-180.93C955.87,-200.91 964.05,-222.12 973.38,-241 974.57,-243.42 975.81,-245.85 977.08,-248.29"/>
<polygon fill="black" stroke="black" points="977.12,-248.35 983.5,-251.71 982.86,-258.89 976.48,-255.54 977.12,-248.35"/>
<text text-anchor="middle" x="986.5" y="-227.7" font-family="Times,serif" font-size="14.00" fill="green">keys</text>
</g>
<!-- tui_typer_tutor.core.typing.Keys&#45;&gt;tui_typer_tutor.screens.main.Main -->
<g id="edge5" class="edge">
<title>tui_typer_tutor.core.typing.Keys&#45;&gt;tui_typer_tutor.screens.main.Main</title>
<path fill="none" stroke="black" d="M974.64,-180.96C982.84,-195.24 991.01,-210.17 998.12,-224.5 1001.88,-232.06 1005.6,-239.94 1009.22,-247.93"/>
<polygon fill="black" stroke="black" points="1009.21,-247.91 1015.31,-251.76 1014.1,-258.87 1008,-255.02 1009.21,-247.91"/>
<text text-anchor="middle" x="1017.5" y="-227.7" font-family="Times,serif" font-size="14.00" fill="green">keys</text>
</g>
<!-- tui_typer_tutor.core.metrics.SessionMetrics -->
<g id="node8" class="node">
<title>tui_typer_tutor.core.metrics.SessionMetrics</title>
<polygon fill="none" stroke="black" points="1031.62,-0.5 1031.62,-206 1302.62,-206 1302.62,-0.5 1031.62,-0.5"/>
<text text-anchor="start" x="1125.5" y="-188.7" font-family="Times,serif" font-size="14.00">SessionMetrics</text>
<polyline fill="none" stroke="black" points="1031.62,-181.5 1302.62,-181.5"/>
<text text-anchor="start" x="1057.25" y="-164.2" font-family="Times,serif" font-size="14.00">filename : str</text>
<text text-anchor="start" x="1057.25" y="-147.7" font-family="Times,serif" font-size="14.00">session_end : Optional[datetime | None]</text>
<text text-anchor="start" x="1057.25" y="-131.2" font-family="Times,serif" font-size="14.00">session_end : datetime</text>
<text text-anchor="start" x="1057.25" y="-114.7" font-family="Times,serif" font-size="14.00">session_start : datetime</text>
<text text-anchor="start" x="1057.25" y="-98.2" font-family="Times,serif" font-size="14.00">typed_correct</text>
<text text-anchor="start" x="1057.25" y="-81.7" font-family="Times,serif" font-size="14.00">typed_correct : int</text>
<text text-anchor="start" x="1057.25" y="-65.2" font-family="Times,serif" font-size="14.00">typed_incorrect</text>
<text text-anchor="start" x="1057.25" y="-48.7" font-family="Times,serif" font-size="14.00">typed_incorrect : int</text>
<polyline fill="none" stroke="black" points="1031.62,-41.5 1302.62,-41.5"/>
<text text-anchor="start" x="1039.62" y="-24.2" font-family="Times,serif" font-size="14.00">end_session(keys: Keys): &#39;SessionMetrics&#39;</text>
<text text-anchor="start" x="1039.62" y="-7.7" font-family="Times,serif" font-size="14.00">from_filename(filename: str): &#39;SessionMetrics&#39;</text>
</g>
<!-- tui_typer_tutor.core.metrics.SessionMetrics&#45;&gt;tui_typer_tutor.screens.main.Main -->
<g id="edge2" class="edge">
<title>tui_typer_tutor.core.metrics.SessionMetrics&#45;&gt;tui_typer_tutor.screens.main.Main</title>
<path fill="none" stroke="black" d="M1108.32,-205.91C1105.26,-212.14 1102.34,-218.37 1099.62,-224.5 1096.33,-231.95 1093.14,-239.71 1090.08,-247.59"/>
<polygon fill="black" stroke="black" points="1090.1,-247.54 1091.72,-254.56 1085.86,-258.76 1084.24,-251.74 1090.1,-247.54"/>
<text text-anchor="middle" x="1119.38" y="-227.7" font-family="Times,serif" font-size="14.00" fill="green">metrics</text>
</g>
<!-- tui_typer_tutor.core.metrics.SessionMetrics&#45;&gt;tui_typer_tutor.screens.main.Main -->
<g id="edge3" class="edge">
<title>tui_typer_tutor.core.metrics.SessionMetrics&#45;&gt;tui_typer_tutor.screens.main.Main</title>
<path fill="none" stroke="black" d="M1152.14,-205.81C1148.88,-217.91 1144.92,-229.89 1140.12,-241 1139.11,-243.34 1138.05,-245.68 1136.94,-248.02"/>
<polygon fill="black" stroke="black" points="1136.88,-248.14 1137.73,-255.3 1131.45,-258.85 1130.6,-251.69 1136.88,-248.14"/>
<text text-anchor="middle" x="1165.38" y="-227.7" font-family="Times,serif" font-size="14.00" fill="green">metrics</text>
</g>
<!-- tui_typer_tutor.app.ttt.TuiTyperTutor -->
<g id="node9" class="node">
<title>tui_typer_tutor.app.ttt.TuiTyperTutor</title>
<polygon fill="none" stroke="black" points="1320.25,-50 1320.25,-156.5 1538,-156.5 1538,-50 1320.25,-50"/>
<text text-anchor="start" x="1388.62" y="-139.2" font-family="Times,serif" font-size="14.00">TuiTyperTutor</text>
<polyline fill="none" stroke="black" points="1320.25,-132 1538,-132"/>
<text text-anchor="start" x="1328.25" y="-114.7" font-family="Times,serif" font-size="14.00">BINDINGS : ClassVar[list[Binding]]</text>
<text text-anchor="start" x="1328.25" y="-98.2" font-family="Times,serif" font-size="14.00">TITLE : str</text>
<polyline fill="none" stroke="black" points="1320.25,-91 1538,-91"/>
<text text-anchor="start" x="1357.12" y="-73.7" font-family="Times,serif" font-size="14.00">action_show_help(): None</text>
<text text-anchor="start" x="1357.12" y="-57.2" font-family="Times,serif" font-size="14.00">on_mount(): None</text>
</g>
<!-- tui_typer_tutor.core.typing.TypedKey -->
<g id="node10" class="node">
<title>tui_typer_tutor.core.typing.TypedKey</title>
<polygon fill="none" stroke="black" points="398.25,-58.25 398.25,-148.25 586,-148.25 586,-58.25 398.25,-58.25"/>
<text text-anchor="start" x="463.62" y="-130.95" font-family="Times,serif" font-size="14.00">TypedKey</text>
<polyline fill="none" stroke="black" points="398.25,-123.75 586,-123.75"/>
<text text-anchor="start" x="406.25" y="-106.45" font-family="Times,serif" font-size="14.00">expected : ExpectedKey | None</text>
<text text-anchor="start" x="406.25" y="-89.95" font-family="Times,serif" font-size="14.00">was_correct</text>
<polyline fill="none" stroke="black" points="398.25,-82.75 586,-82.75"/>
<text text-anchor="start" x="490.25" y="-65.45" font-family="Times,serif" font-size="14.00"> </text>
</g>
<!-- tui_typer_tutor.core.typing.TypedKey&#45;&gt;tui_typer_tutor.core.typing.ExpectedKey -->
<g id="edge1" class="edge">
<title>tui_typer_tutor.core.typing.TypedKey&#45;&gt;tui_typer_tutor.core.typing.ExpectedKey</title>
<path fill="none" stroke="black" d="M492.12,-148.14C492.12,-191.94 492.12,-259.34 492.12,-306.59"/>
<polygon fill="none" stroke="black" points="488.63,-306.54 492.12,-316.54 495.63,-306.54 488.63,-306.54"/>
</g>
</g>
</svg>
