<?xml version="1.0" encoding="UTF-8" standalone="no"?>
<!DOCTYPE svg PUBLIC "-//W3C//DTD SVG 1.1//EN"
 "http://www.w3.org/Graphics/SVG/1.1/DTD/svg11.dtd">
<!-- Generated by graphviz version 8.1.0 (20230707.0739)
 -->
<!-- Title: classes Pages: 1 -->
<svg width="1767pt" height="507pt"
 viewBox="0.00 0.00 1766.62 506.50" xmlns="http://www.w3.org/2000/svg" xmlns:xlink="http://www.w3.org/1999/xlink">
<g id="graph0" class="graph" transform="scale(1 1) rotate(0) translate(4 502.5)">
<title>classes</title>
<polygon fill="white" stroke="none" points="-4,4 -4,-502.5 1762.62,-502.5 1762.62,4 -4,4"/>
<!-- tui_typer_tutor.core.typing.AtEndOfExpectedError -->
<g id="node1" class="node">
<title>tui_typer_tutor.core.typing.AtEndOfExpectedError</title>
<polygon fill="none" stroke="black" points="0,-78.75 0,-127.75 144.25,-127.75 144.25,-78.75 0,-78.75"/>
<text text-anchor="start" x="8" y="-110.45" font-family="Times,serif" font-size="14.00" fill="red">AtEndOfExpectedError</text>
<polyline fill="none" stroke="black" points="0,-103.25 144.25,-103.25"/>
<polyline fill="none" stroke="black" points="0,-103.25 144.25,-103.25"/>
<text text-anchor="start" x="70.25" y="-85.95" font-family="Times,serif" font-size="14.00" fill="red"> </text>
</g>
<!-- tui_typer_tutor.core.config.Config -->
<g id="node2" class="node">
<title>tui_typer_tutor.core.config.Config</title>
<polygon fill="none" stroke="black" points="162.5,-50 162.5,-156.5 369.75,-156.5 369.75,-50 162.5,-50"/>
<text text-anchor="start" x="247.38" y="-139.2" font-family="Times,serif" font-size="14.00">Config</text>
<polyline fill="none" stroke="black" points="162.5,-132 369.75,-132"/>
<text text-anchor="start" x="170.5" y="-114.7" font-family="Times,serif" font-size="14.00">model_config : SettingsConfigDict</text>
<text text-anchor="start" x="170.5" y="-98.2" font-family="Times,serif" font-size="14.00">seed_file : Path</text>
<text text-anchor="start" x="170.5" y="-81.7" font-family="Times,serif" font-size="14.00">seed_file : Path</text>
<polyline fill="none" stroke="black" points="162.5,-74.5 369.75,-74.5"/>
<text text-anchor="start" x="264.25" y="-57.2" font-family="Times,serif" font-size="14.00"> </text>
</g>
<!-- tui_typer_tutor.core.typing.ExpectedKey -->
<g id="node3" class="node">
<title>tui_typer_tutor.core.typing.ExpectedKey</title>
<polygon fill="none" stroke="black" points="465.75,-333.75 465.75,-423.75 554.5,-423.75 554.5,-333.75 465.75,-333.75"/>
<text text-anchor="start" x="473.75" y="-406.45" font-family="Times,serif" font-size="14.00">ExpectedKey</text>
<polyline fill="none" stroke="black" points="465.75,-399.25 554.5,-399.25"/>
<text text-anchor="start" x="479.38" y="-381.95" font-family="Times,serif" font-size="14.00">text</text>
<text text-anchor="start" x="479.38" y="-365.45" font-family="Times,serif" font-size="14.00">textual : str</text>
<polyline fill="none" stroke="black" points="465.75,-358.25 554.5,-358.25"/>
<text text-anchor="start" x="508.25" y="-340.95" font-family="Times,serif" font-size="14.00"> </text>
</g>
<!-- tui_typer_tutor.screens.help.Help -->
<g id="node4" class="node">
<title>tui_typer_tutor.screens.help.Help</title>
<polygon fill="none" stroke="black" points="650.25,-50 650.25,-156.5 868,-156.5 868,-50 650.25,-50"/>
<text text-anchor="start" x="746" y="-139.2" font-family="Times,serif" font-size="14.00">Help</text>
<polyline fill="none" stroke="black" points="650.25,-132 868,-132"/>
<text text-anchor="start" x="658.25" y="-114.7" font-family="Times,serif" font-size="14.00">BINDINGS : ClassVar[list[Binding]]</text>
<text text-anchor="start" x="658.25" y="-98.2" font-family="Times,serif" font-size="14.00">DEFAULT_CSS : ClassVar[str]</text>
<polyline fill="none" stroke="black" points="650.25,-91 868,-91"/>
<text text-anchor="start" x="683.38" y="-73.7" font-family="Times,serif" font-size="14.00">action_close(): None</text>
<text text-anchor="start" x="683.38" y="-57.2" font-family="Times,serif" font-size="14.00">compose(): ComposeResult</text>
</g>
<!-- tui_typer_tutor.core.typing.Keys -->
<g id="node5" class="node">
<title>tui_typer_tutor.core.typing.Keys</title>
<polygon fill="none" stroke="black" points="886.38,-25.25 886.38,-181.25 1059.88,-181.25 1059.88,-25.25 886.38,-25.25"/>
<text text-anchor="start" x="959.25" y="-163.95" font-family="Times,serif" font-size="14.00">Keys</text>
<polyline fill="none" stroke="black" points="886.38,-156.75 1059.88,-156.75"/>
<text text-anchor="start" x="894.38" y="-139.45" font-family="Times,serif" font-size="14.00">expected : list[ExpectedKey]</text>
<text text-anchor="start" x="894.38" y="-122.95" font-family="Times,serif" font-size="14.00">last_was_delete</text>
<text text-anchor="start" x="894.38" y="-106.45" font-family="Times,serif" font-size="14.00">last_was_delete : bool</text>
<text text-anchor="start" x="894.38" y="-89.95" font-family="Times,serif" font-size="14.00">typed</text>
<text text-anchor="start" x="894.38" y="-73.45" font-family="Times,serif" font-size="14.00">typed : list[TypedKey]</text>
<text text-anchor="start" x="894.38" y="-56.95" font-family="Times,serif" font-size="14.00">typed_all : list[TypedKey]</text>
<polyline fill="none" stroke="black" points="886.38,-49.75 1059.88,-49.75"/>
<text text-anchor="start" x="937.12" y="-32.45" font-family="Times,serif" font-size="14.00">store(): None</text>
</g>
<!-- tui_typer_tutor.screens.main.Main -->
<g id="node6" class="node">
<title>tui_typer_tutor.screens.main.Main</title>
<polygon fill="none" stroke="black" points="991.25,-259.5 991.25,-498 1209,-498 1209,-259.5 991.25,-259.5"/>
<text text-anchor="start" x="1085.5" y="-480.7" font-family="Times,serif" font-size="14.00">Main</text>
<polyline fill="none" stroke="black" points="991.25,-473.5 1209,-473.5"/>
<text text-anchor="start" x="999.25" y="-456.2" font-family="Times,serif" font-size="14.00">BINDINGS : ClassVar[list[Binding]]</text>
<text text-anchor="start" x="999.25" y="-439.7" font-family="Times,serif" font-size="14.00">DEFAULT_CSS : ClassVar[str]</text>
<text text-anchor="start" x="999.25" y="-423.2" font-family="Times,serif" font-size="14.00">keys</text>
<text text-anchor="start" x="999.25" y="-406.7" font-family="Times,serif" font-size="14.00">keys</text>
<text text-anchor="start" x="999.25" y="-390.2" font-family="Times,serif" font-size="14.00">metrics</text>
<text text-anchor="start" x="999.25" y="-373.7" font-family="Times,serif" font-size="14.00">metrics</text>
<text text-anchor="start" x="999.25" y="-357.2" font-family="Times,serif" font-size="14.00">width</text>
<text text-anchor="start" x="999.25" y="-340.7" font-family="Times,serif" font-size="14.00">width : int</text>
<polyline fill="none" stroke="black" points="991.25,-333.5 1209,-333.5"/>
<text text-anchor="start" x="1018.38" y="-316.2" font-family="Times,serif" font-size="14.00">action_save_and_quit(): None</text>
<text text-anchor="start" x="1018.38" y="-299.7" font-family="Times,serif" font-size="14.00">compose(): ComposeResult</text>
<text text-anchor="start" x="1018.38" y="-283.2" font-family="Times,serif" font-size="14.00">on_key(event: Key): None</text>
<text text-anchor="start" x="1018.38" y="-266.7" font-family="Times,serif" font-size="14.00">on_mount(): None</text>
</g>
<!-- tui_typer_tutor.core.typing.Keys&#45;&gt;tui_typer_tutor.screens.main.Main -->
<g id="edge4" class="edge">
<title>tui_typer_tutor.core.typing.Keys&#45;&gt;tui_typer_tutor.screens.main.Main</title>
<path fill="none" stroke="black" d="M995.95,-180.93C1002.7,-200.81 1010.66,-221.98 1019.38,-241 1020.43,-243.3 1021.51,-245.62 1022.62,-247.94"/>
<polygon fill="black" stroke="black" points="1022.66,-248.01 1028.9,-251.62 1027.96,-258.77 1021.72,-255.16 1022.66,-248.01"/>
<text text-anchor="middle" x="1032.5" y="-227.7" font-family="Times,serif" font-size="14.00" fill="green">keys</text>
</g>
<!-- tui_typer_tutor.core.typing.Keys&#45;&gt;tui_typer_tutor.screens.main.Main -->
<g id="edge5" class="edge">
<title>tui_typer_tutor.core.typing.Keys&#45;&gt;tui_typer_tutor.screens.main.Main</title>
<path fill="none" stroke="black" d="M1021.28,-181.07C1029.37,-195.26 1037.33,-210.15 1044.12,-224.5 1047.71,-232.07 1051.21,-239.93 1054.6,-247.93"/>
<polygon fill="black" stroke="black" points="1054.54,-247.79 1060.53,-251.8 1059.14,-258.87 1053.14,-254.86 1054.54,-247.79"/>
<text text-anchor="middle" x="1064.5" y="-227.7" font-family="Times,serif" font-size="14.00" fill="green">keys</text>
</g>
<!-- tui_typer_tutor.core.metrics.SessionMetrics -->
<g id="node7" class="node">
<title>tui_typer_tutor.core.metrics.SessionMetrics</title>
<polygon fill="none" stroke="black" points="1077.62,-0.5 1077.62,-206 1348.62,-206 1348.62,-0.5 1077.62,-0.5"/>
<text text-anchor="start" x="1171.5" y="-188.7" font-family="Times,serif" font-size="14.00">SessionMetrics</text>
<polyline fill="none" stroke="black" points="1077.62,-181.5 1348.62,-181.5"/>
<text text-anchor="start" x="1103.25" y="-164.2" font-family="Times,serif" font-size="14.00">filename : str</text>
<text text-anchor="start" x="1103.25" y="-147.7" font-family="Times,serif" font-size="14.00">session_end : Optional[datetime | None]</text>
<text text-anchor="start" x="1103.25" y="-131.2" font-family="Times,serif" font-size="14.00">session_end : datetime</text>
<text text-anchor="start" x="1103.25" y="-114.7" font-family="Times,serif" font-size="14.00">session_start : datetime</text>
<text text-anchor="start" x="1103.25" y="-98.2" font-family="Times,serif" font-size="14.00">typed_correct</text>
<text text-anchor="start" x="1103.25" y="-81.7" font-family="Times,serif" font-size="14.00">typed_correct : int</text>
<text text-anchor="start" x="1103.25" y="-65.2" font-family="Times,serif" font-size="14.00">typed_incorrect</text>
<text text-anchor="start" x="1103.25" y="-48.7" font-family="Times,serif" font-size="14.00">typed_incorrect : int</text>
<polyline fill="none" stroke="black" points="1077.62,-41.5 1348.62,-41.5"/>
<text text-anchor="start" x="1085.62" y="-24.2" font-family="Times,serif" font-size="14.00">end_session(keys: Keys): &#39;SessionMetrics&#39;</text>
<text text-anchor="start" x="1085.62" y="-7.7" font-family="Times,serif" font-size="14.00">from_filename(filename: str): &#39;SessionMetrics&#39;</text>
</g>
<!-- tui_typer_tutor.core.metrics.SessionMetrics&#45;&gt;tui_typer_tutor.screens.main.Main -->
<g id="edge2" class="edge">
<title>tui_typer_tutor.core.metrics.SessionMetrics&#45;&gt;tui_typer_tutor.screens.main.Main</title>
<path fill="none" stroke="black" d="M1154.08,-205.81C1151.08,-212.06 1148.24,-218.33 1145.62,-224.5 1142.47,-231.97 1139.44,-239.73 1136.55,-247.62"/>
<polygon fill="black" stroke="black" points="1136.59,-247.51 1138.35,-254.5 1132.57,-258.82 1130.81,-251.82 1136.59,-247.51"/>
<text text-anchor="middle" x="1165.38" y="-227.7" font-family="Times,serif" font-size="14.00" fill="green">metrics</text>
</g>
<!-- tui_typer_tutor.core.metrics.SessionMetrics&#45;&gt;tui_typer_tutor.screens.main.Main -->
<g id="edge3" class="edge">
<title>tui_typer_tutor.core.metrics.SessionMetrics&#45;&gt;tui_typer_tutor.screens.main.Main</title>
<path fill="none" stroke="black" d="M1197.4,-205.91C1194.27,-217.93 1190.55,-229.87 1186.12,-241 1185.19,-243.35 1184.22,-245.7 1183.21,-248.05"/>
<polygon fill="black" stroke="black" points="1183.21,-248.05 1184.37,-255.16 1178.25,-258.97 1177.09,-251.86 1183.21,-248.05"/>
<text text-anchor="middle" x="1211.38" y="-227.7" font-family="Times,serif" font-size="14.00" fill="green">metrics</text>
</g>
<!-- tui_typer_tutor.app.ttt.TuiTyperTutor -->
<g id="node8" class="node">
<title>tui_typer_tutor.app.ttt.TuiTyperTutor</title>
<polygon fill="none" stroke="black" points="1366.25,-50 1366.25,-156.5 1584,-156.5 1584,-50 1366.25,-50"/>
<text text-anchor="start" x="1434.62" y="-139.2" font-family="Times,serif" font-size="14.00">TuiTyperTutor</text>
<polyline fill="none" stroke="black" points="1366.25,-132 1584,-132"/>
<text text-anchor="start" x="1374.25" y="-114.7" font-family="Times,serif" font-size="14.00">BINDINGS : ClassVar[list[Binding]]</text>
<text text-anchor="start" x="1374.25" y="-98.2" font-family="Times,serif" font-size="14.00">TITLE : str</text>
<polyline fill="none" stroke="black" points="1366.25,-91 1584,-91"/>
<text text-anchor="start" x="1403.12" y="-73.7" font-family="Times,serif" font-size="14.00">action_show_help(): None</text>
<text text-anchor="start" x="1403.12" y="-57.2" font-family="Times,serif" font-size="14.00">on_mount(): None</text>
</g>
<!-- tui_typer_tutor.core.typing.TypedKey -->
<g id="node9" class="node">
<title>tui_typer_tutor.core.typing.TypedKey</title>
<polygon fill="none" stroke="black" points="388.12,-58.25 388.12,-148.25 632.12,-148.25 632.12,-58.25 388.12,-58.25"/>
<text text-anchor="start" x="481.62" y="-130.95" font-family="Times,serif" font-size="14.00">TypedKey</text>
<polyline fill="none" stroke="black" points="388.12,-123.75 632.12,-123.75"/>
<text text-anchor="start" x="396.12" y="-106.45" font-family="Times,serif" font-size="14.00">expected : Optional[ExpectedKey | None]</text>
<text text-anchor="start" x="396.12" y="-89.95" font-family="Times,serif" font-size="14.00">was_correct</text>
<polyline fill="none" stroke="black" points="388.12,-82.75 632.12,-82.75"/>
<text text-anchor="start" x="508.25" y="-65.45" font-family="Times,serif" font-size="14.00"> </text>
</g>
<!-- tui_typer_tutor.core.typing.TypedKey&#45;&gt;tui_typer_tutor.core.typing.ExpectedKey -->
<g id="edge1" class="edge">
<title>tui_typer_tutor.core.typing.TypedKey&#45;&gt;tui_typer_tutor.core.typing.ExpectedKey</title>
<path fill="none" stroke="black" d="M510.12,-148.19C510.12,-195.74 510.12,-271.64 510.12,-323.02"/>
<polygon fill="none" stroke="black" points="506.63,-322.92 510.12,-332.92 513.63,-322.92 506.63,-322.92"/>
</g>
<!-- tui_typer_tutor._BeartypeModes -->
<g id="node10" class="node">
<title>tui_typer_tutor._BeartypeModes</title>
<polygon fill="none" stroke="black" points="1601.62,-66.5 1601.62,-140 1758.62,-140 1758.62,-66.5 1601.62,-66.5"/>
<text text-anchor="start" x="1633.62" y="-122.7" font-family="Times,serif" font-size="14.00">_BeartypeModes</text>
<polyline fill="none" stroke="black" points="1601.62,-115.5 1758.62,-115.5"/>
<text text-anchor="start" x="1665.12" y="-98.2" font-family="Times,serif" font-size="14.00">name</text>
<polyline fill="none" stroke="black" points="1601.62,-91 1758.62,-91"/>
<text text-anchor="start" x="1609.62" y="-73.7" font-family="Times,serif" font-size="14.00">from_environment(): Self</text>
</g>
</g>
</svg>
