<?xml version="1.0" encoding="UTF-8" standalone="no"?>
<!DOCTYPE svg PUBLIC "-//W3C//DTD SVG 1.1//EN"
 "http://www.w3.org/Graphics/SVG/1.1/DTD/svg11.dtd">
<!-- Generated by graphviz version 2.43.0 (0)
 -->
<!-- Title: classes Pages: 1 -->
<svg width="1909pt" height="439pt"
 viewBox="0.00 0.00 1909.00 439.00" xmlns="http://www.w3.org/2000/svg" xmlns:xlink="http://www.w3.org/1999/xlink">
<g id="graph0" class="graph" transform="scale(1 1) rotate(0) translate(4 435)">
<title>classes</title>
<polygon fill="white" stroke="transparent" points="-4,4 -4,-435 1905,-435 1905,4 -4,4"/>
<!-- tui_typer_tutor.core.typing.AtEndOfExpectedError -->
<g id="node1" class="node">
<title>tui_typer_tutor.core.typing.AtEndOfExpectedError</title>
<polygon fill="none" stroke="black" points="0,-59.6 0,-130.4 183,-130.4 183,-59.6 0,-59.6"/>
<text text-anchor="start" x="8" y="-115.2" font-family="Times,serif" font-size="14.00" fill="red">AtEndOfExpectedError</text>
<polyline fill="none" stroke="black" points="0,-107.4 183,-107.4 "/>
<polyline fill="none" stroke="black" points="0,-82.6 183,-82.6 "/>
<text text-anchor="start" x="89" y="-67.4" font-family="Times,serif" font-size="14.00" fill="red"> </text>
</g>
<!-- tui_typer_tutor.core.config.Config -->
<g id="node2" class="node">
<title>tui_typer_tutor.core.config.Config</title>
<polygon fill="none" stroke="black" points="201.5,-53 201.5,-137 325.5,-137 325.5,-53 201.5,-53"/>
<text text-anchor="start" x="240.5" y="-121.8" font-family="Times,serif" font-size="14.00">Config</text>
<polyline fill="none" stroke="black" points="201.5,-114 325.5,-114 "/>
<text text-anchor="start" x="209.5" y="-98.8" font-family="Times,serif" font-size="14.00">seed_file : Path</text>
<text text-anchor="start" x="209.5" y="-83.8" font-family="Times,serif" font-size="14.00">seed_file : Path</text>
<polyline fill="none" stroke="black" points="201.5,-76 325.5,-76 "/>
<text text-anchor="start" x="261" y="-60.8" font-family="Times,serif" font-size="14.00"> </text>
</g>
<!-- tui_typer_tutor.core.config.Config.Config -->
<g id="node3" class="node">
<title>tui_typer_tutor.core.config.Config.Config</title>
<polygon fill="none" stroke="black" points="343.5,-60.5 343.5,-129.5 467.5,-129.5 467.5,-60.5 343.5,-60.5"/>
<text text-anchor="start" x="382.5" y="-114.3" font-family="Times,serif" font-size="14.00">Config</text>
<polyline fill="none" stroke="black" points="343.5,-106.5 467.5,-106.5 "/>
<text text-anchor="start" x="351.5" y="-91.3" font-family="Times,serif" font-size="14.00">env_prefix : str</text>
<polyline fill="none" stroke="black" points="343.5,-83.5 467.5,-83.5 "/>
<text text-anchor="start" x="403" y="-68.3" font-family="Times,serif" font-size="14.00"> </text>
</g>
<!-- tui_typer_tutor.core.typing.ExpectedKey -->
<g id="node4" class="node">
<title>tui_typer_tutor.core.typing.ExpectedKey</title>
<polygon fill="none" stroke="black" points="550.5,-294 550.5,-378 660.5,-378 660.5,-294 550.5,-294"/>
<text text-anchor="start" x="558.5" y="-362.8" font-family="Times,serif" font-size="14.00">ExpectedKey</text>
<polyline fill="none" stroke="black" points="550.5,-355 660.5,-355 "/>
<text text-anchor="start" x="563" y="-339.8" font-family="Times,serif" font-size="14.00">text</text>
<text text-anchor="start" x="563" y="-324.8" font-family="Times,serif" font-size="14.00">textual : str</text>
<polyline fill="none" stroke="black" points="550.5,-317 660.5,-317 "/>
<text text-anchor="start" x="603" y="-301.8" font-family="Times,serif" font-size="14.00"> </text>
</g>
<!-- tui_typer_tutor.screens.help.Help -->
<g id="node5" class="node">
<title>tui_typer_tutor.screens.help.Help</title>
<polygon fill="none" stroke="black" points="743,-45.5 743,-144.5 1012,-144.5 1012,-45.5 743,-45.5"/>
<text text-anchor="start" x="860.5" y="-129.3" font-family="Times,serif" font-size="14.00">Help</text>
<polyline fill="none" stroke="black" points="743,-121.5 1012,-121.5 "/>
<text text-anchor="start" x="751" y="-106.3" font-family="Times,serif" font-size="14.00">BINDINGS : ClassVar[list[Binding]]</text>
<text text-anchor="start" x="751" y="-91.3" font-family="Times,serif" font-size="14.00">DEFAULT_CSS : ClassVar[str]</text>
<polyline fill="none" stroke="black" points="743,-83.5 1012,-83.5 "/>
<text text-anchor="start" x="781" y="-68.3" font-family="Times,serif" font-size="14.00">action_close(): None</text>
<text text-anchor="start" x="781" y="-53.3" font-family="Times,serif" font-size="14.00">compose(): ComposeResult</text>
</g>
<!-- tui_typer_tutor.core.typing.Keys -->
<g id="node6" class="node">
<title>tui_typer_tutor.core.typing.Keys</title>
<polygon fill="none" stroke="black" points="1030,-23 1030,-167 1251,-167 1251,-23 1030,-23"/>
<text text-anchor="start" x="1123.5" y="-151.8" font-family="Times,serif" font-size="14.00">Keys</text>
<polyline fill="none" stroke="black" points="1030,-144 1251,-144 "/>
<text text-anchor="start" x="1038" y="-128.8" font-family="Times,serif" font-size="14.00">expected : list[ExpectedKey]</text>
<text text-anchor="start" x="1038" y="-113.8" font-family="Times,serif" font-size="14.00">last_was_delete</text>
<text text-anchor="start" x="1038" y="-98.8" font-family="Times,serif" font-size="14.00">last_was_delete : bool</text>
<text text-anchor="start" x="1038" y="-83.8" font-family="Times,serif" font-size="14.00">typed</text>
<text text-anchor="start" x="1038" y="-68.8" font-family="Times,serif" font-size="14.00">typed : list[TypedKey]</text>
<text text-anchor="start" x="1038" y="-53.8" font-family="Times,serif" font-size="14.00">typed_all : list[TypedKey]</text>
<polyline fill="none" stroke="black" points="1030,-46 1251,-46 "/>
<text text-anchor="start" x="1093.5" y="-30.8" font-family="Times,serif" font-size="14.00">store(): None</text>
</g>
<!-- tui_typer_tutor.screens.main.Main -->
<g id="node7" class="node">
<title>tui_typer_tutor.screens.main.Main</title>
<polygon fill="none" stroke="black" points="1166,-241.5 1166,-430.5 1435,-430.5 1435,-241.5 1166,-241.5"/>
<text text-anchor="start" x="1282" y="-415.3" font-family="Times,serif" font-size="14.00">Main</text>
<polyline fill="none" stroke="black" points="1166,-407.5 1435,-407.5 "/>
<text text-anchor="start" x="1174" y="-392.3" font-family="Times,serif" font-size="14.00">BINDINGS : ClassVar[list[Binding]]</text>
<text text-anchor="start" x="1174" y="-377.3" font-family="Times,serif" font-size="14.00">DEFAULT_CSS : ClassVar[str]</text>
<text text-anchor="start" x="1174" y="-362.3" font-family="Times,serif" font-size="14.00">keys</text>
<text text-anchor="start" x="1174" y="-347.3" font-family="Times,serif" font-size="14.00">keys</text>
<text text-anchor="start" x="1174" y="-332.3" font-family="Times,serif" font-size="14.00">metrics</text>
<text text-anchor="start" x="1174" y="-317.3" font-family="Times,serif" font-size="14.00">metrics</text>
<polyline fill="none" stroke="black" points="1166,-309.5 1435,-309.5 "/>
<text text-anchor="start" x="1196.5" y="-294.3" font-family="Times,serif" font-size="14.00">action_save_and_quit(): None</text>
<text text-anchor="start" x="1196.5" y="-279.3" font-family="Times,serif" font-size="14.00">compose(): ComposeResult</text>
<text text-anchor="start" x="1196.5" y="-264.3" font-family="Times,serif" font-size="14.00">on_key(event: Key): None</text>
<text text-anchor="start" x="1196.5" y="-249.3" font-family="Times,serif" font-size="14.00">on_mount(): None</text>
</g>
<!-- tui_typer_tutor.core.typing.Keys&#45;&gt;tui_typer_tutor.screens.main.Main -->
<g id="edge4" class="edge">
<title>tui_typer_tutor.core.typing.Keys&#45;&gt;tui_typer_tutor.screens.main.Main</title>
<path fill="none" stroke="black" d="M1171.93,-167.31C1181.2,-185.96 1191.98,-205.69 1203.5,-223 1205.4,-225.86 1207.37,-228.73 1209.4,-231.59"/>
<polygon fill="black" stroke="black" points="1209.41,-231.61 1216.17,-234.11 1216.46,-241.32 1209.7,-238.81 1209.41,-231.61"/>
<text text-anchor="middle" x="1220" y="-211.8" font-family="Times,serif" font-size="14.00" fill="green">keys</text>
</g>
<!-- tui_typer_tutor.core.typing.Keys&#45;&gt;tui_typer_tutor.screens.main.Main -->
<g id="edge5" class="edge">
<title>tui_typer_tutor.core.typing.Keys&#45;&gt;tui_typer_tutor.screens.main.Main</title>
<path fill="none" stroke="black" d="M1205.91,-167.18C1216.7,-180.32 1227.34,-194.25 1236.5,-208 1241.3,-215.2 1245.99,-222.82 1250.5,-230.59"/>
<polygon fill="black" stroke="black" points="1250.63,-230.83 1257.07,-234.08 1256.54,-241.27 1250.1,-238.02 1250.63,-230.83"/>
<text text-anchor="middle" x="1262" y="-211.8" font-family="Times,serif" font-size="14.00" fill="green">keys</text>
</g>
<!-- tui_typer_tutor.core.metrics.SessionMetrics -->
<g id="node8" class="node">
<title>tui_typer_tutor.core.metrics.SessionMetrics</title>
<polygon fill="none" stroke="black" points="1269.5,-0.5 1269.5,-189.5 1613.5,-189.5 1613.5,-0.5 1269.5,-0.5"/>
<text text-anchor="start" x="1386.5" y="-174.3" font-family="Times,serif" font-size="14.00">SessionMetrics</text>
<polyline fill="none" stroke="black" points="1269.5,-166.5 1613.5,-166.5 "/>
<text text-anchor="start" x="1298.5" y="-151.3" font-family="Times,serif" font-size="14.00">filename : str</text>
<text text-anchor="start" x="1298.5" y="-136.3" font-family="Times,serif" font-size="14.00">session_end : Optional[datetime | None]</text>
<text text-anchor="start" x="1298.5" y="-121.3" font-family="Times,serif" font-size="14.00">session_end : datetime</text>
<text text-anchor="start" x="1298.5" y="-106.3" font-family="Times,serif" font-size="14.00">session_start : datetime</text>
<text text-anchor="start" x="1298.5" y="-91.3" font-family="Times,serif" font-size="14.00">typed_correct</text>
<text text-anchor="start" x="1298.5" y="-76.3" font-family="Times,serif" font-size="14.00">typed_correct : int</text>
<text text-anchor="start" x="1298.5" y="-61.3" font-family="Times,serif" font-size="14.00">typed_incorrect</text>
<text text-anchor="start" x="1298.5" y="-46.3" font-family="Times,serif" font-size="14.00">typed_incorrect : int</text>
<polyline fill="none" stroke="black" points="1269.5,-38.5 1613.5,-38.5 "/>
<text text-anchor="start" x="1277.5" y="-23.3" font-family="Times,serif" font-size="14.00">end_session(keys: Keys): &#39;SessionMetrics&#39;</text>
<text text-anchor="start" x="1277.5" y="-8.3" font-family="Times,serif" font-size="14.00">from_filename(filename: str): &#39;SessionMetrics&#39;</text>
</g>
<!-- tui_typer_tutor.core.metrics.SessionMetrics&#45;&gt;tui_typer_tutor.screens.main.Main -->
<g id="edge2" class="edge">
<title>tui_typer_tutor.core.metrics.SessionMetrics&#45;&gt;tui_typer_tutor.screens.main.Main</title>
<path fill="none" stroke="black" d="M1368.93,-189.69C1364.93,-195.79 1361.08,-201.93 1357.5,-208 1353.29,-215.15 1349.18,-222.66 1345.22,-230.31"/>
<polygon fill="black" stroke="black" points="1345.14,-230.48 1346.01,-237.64 1339.74,-241.2 1338.87,-234.04 1345.14,-230.48"/>
<text text-anchor="middle" x="1385" y="-211.8" font-family="Times,serif" font-size="14.00" fill="green">metrics</text>
</g>
<!-- tui_typer_tutor.core.metrics.SessionMetrics&#45;&gt;tui_typer_tutor.screens.main.Main -->
<g id="edge3" class="edge">
<title>tui_typer_tutor.core.metrics.SessionMetrics&#45;&gt;tui_typer_tutor.screens.main.Main</title>
<path fill="none" stroke="black" d="M1426.44,-189.8C1422.76,-201.36 1418.19,-212.71 1412.5,-223 1410.99,-225.74 1409.39,-228.45 1407.71,-231.14"/>
<polygon fill="black" stroke="black" points="1407.54,-231.39 1407.55,-238.61 1400.89,-241.38 1400.89,-234.17 1407.54,-231.39"/>
<text text-anchor="middle" x="1446" y="-211.8" font-family="Times,serif" font-size="14.00" fill="green">metrics</text>
</g>
<!-- tui_typer_tutor.app.ttt.TuiTyperTutor -->
<g id="node9" class="node">
<title>tui_typer_tutor.app.ttt.TuiTyperTutor</title>
<polygon fill="none" stroke="black" points="1632,-45.5 1632,-144.5 1901,-144.5 1901,-45.5 1632,-45.5"/>
<text text-anchor="start" x="1715" y="-129.3" font-family="Times,serif" font-size="14.00">TuiTyperTutor</text>
<polyline fill="none" stroke="black" points="1632,-121.5 1901,-121.5 "/>
<text text-anchor="start" x="1640" y="-106.3" font-family="Times,serif" font-size="14.00">BINDINGS : ClassVar[list[Binding]]</text>
<text text-anchor="start" x="1640" y="-91.3" font-family="Times,serif" font-size="14.00">TITLE : str</text>
<polyline fill="none" stroke="black" points="1632,-83.5 1901,-83.5 "/>
<text text-anchor="start" x="1675.5" y="-68.3" font-family="Times,serif" font-size="14.00">action_show_help(): None</text>
<text text-anchor="start" x="1675.5" y="-53.3" font-family="Times,serif" font-size="14.00">on_mount(): None</text>
</g>
<!-- tui_typer_tutor.core.typing.TypedKey -->
<g id="node10" class="node">
<title>tui_typer_tutor.core.typing.TypedKey</title>
<polygon fill="none" stroke="black" points="486,-53 486,-137 725,-137 725,-53 486,-53"/>
<text text-anchor="start" x="570.5" y="-121.8" font-family="Times,serif" font-size="14.00">TypedKey</text>
<polyline fill="none" stroke="black" points="486,-114 725,-114 "/>
<text text-anchor="start" x="494" y="-98.8" font-family="Times,serif" font-size="14.00">expected : ExpectedKey | None</text>
<text text-anchor="start" x="494" y="-83.8" font-family="Times,serif" font-size="14.00">was_correct</text>
<polyline fill="none" stroke="black" points="486,-76 725,-76 "/>
<text text-anchor="start" x="603" y="-60.8" font-family="Times,serif" font-size="14.00"> </text>
</g>
<!-- tui_typer_tutor.core.typing.TypedKey&#45;&gt;tui_typer_tutor.core.typing.ExpectedKey -->
<g id="edge1" class="edge">
<title>tui_typer_tutor.core.typing.TypedKey&#45;&gt;tui_typer_tutor.core.typing.ExpectedKey</title>
<path fill="none" stroke="black" d="M605.5,-137.09C605.5,-177.61 605.5,-239.68 605.5,-283.49"/>
<polygon fill="none" stroke="black" points="602,-283.65 605.5,-293.65 609,-283.65 602,-283.65"/>
</g>
</g>
</svg>
