<?xml version="1.0" encoding="UTF-8" standalone="no"?>
<!DOCTYPE svg PUBLIC "-//W3C//DTD SVG 1.1//EN"
 "http://www.w3.org/Graphics/SVG/1.1/DTD/svg11.dtd">
<!-- Generated by graphviz version 2.43.0 (0)
 -->
<!-- Title: classes Pages: 1 -->
<svg width="2223pt" height="469pt"
 viewBox="0.00 0.00 2222.50 469.00" xmlns="http://www.w3.org/2000/svg" xmlns:xlink="http://www.w3.org/1999/xlink">
<g id="graph0" class="graph" transform="scale(1 1) rotate(0) translate(4 465)">
<title>classes</title>
<polygon fill="white" stroke="transparent" points="-4,4 -4,-465 2218.5,-465 2218.5,4 -4,4"/>
<!-- tui_typer_tutor.core.typing.AtEndOfExpectedError -->
<g id="node1" class="node">
<title>tui_typer_tutor.core.typing.AtEndOfExpectedError</title>
<polygon fill="none" stroke="black" points="0,-59.6 0,-130.4 183,-130.4 183,-59.6 0,-59.6"/>
<text text-anchor="start" x="8" y="-115.2" font-family="Times,serif" font-size="14.00" fill="red">AtEndOfExpectedError</text>
<polyline fill="none" stroke="black" points="0,-107.4 183,-107.4 "/>
<polyline fill="none" stroke="black" points="0,-82.6 183,-82.6 "/>
<text text-anchor="start" x="89" y="-67.4" font-family="Times,serif" font-size="14.00" fill="red"> </text>
</g>
<!-- tui_typer_tutor.core.config.Config -->
<g id="node2" class="node">
<title>tui_typer_tutor.core.config.Config</title>
<polygon fill="none" stroke="black" points="201.5,-45.5 201.5,-144.5 459.5,-144.5 459.5,-45.5 201.5,-45.5"/>
<text text-anchor="start" x="307.5" y="-129.3" font-family="Times,serif" font-size="14.00">Config</text>
<polyline fill="none" stroke="black" points="201.5,-121.5 459.5,-121.5 "/>
<text text-anchor="start" x="209.5" y="-106.3" font-family="Times,serif" font-size="14.00">model_config : SettingsConfigDict</text>
<text text-anchor="start" x="209.5" y="-91.3" font-family="Times,serif" font-size="14.00">seed_file : Path</text>
<text text-anchor="start" x="209.5" y="-76.3" font-family="Times,serif" font-size="14.00">seed_file : Path</text>
<polyline fill="none" stroke="black" points="201.5,-68.5 459.5,-68.5 "/>
<text text-anchor="start" x="328" y="-53.3" font-family="Times,serif" font-size="14.00"> </text>
</g>
<!-- tui_typer_tutor.core.typing.ExpectedKey -->
<g id="node3" class="node">
<title>tui_typer_tutor.core.typing.ExpectedKey</title>
<polygon fill="none" stroke="black" points="577.5,-309 577.5,-393 687.5,-393 687.5,-309 577.5,-309"/>
<text text-anchor="start" x="585.5" y="-377.8" font-family="Times,serif" font-size="14.00">ExpectedKey</text>
<polyline fill="none" stroke="black" points="577.5,-370 687.5,-370 "/>
<text text-anchor="start" x="590" y="-354.8" font-family="Times,serif" font-size="14.00">text</text>
<text text-anchor="start" x="590" y="-339.8" font-family="Times,serif" font-size="14.00">textual : str</text>
<polyline fill="none" stroke="black" points="577.5,-332 687.5,-332 "/>
<text text-anchor="start" x="630" y="-316.8" font-family="Times,serif" font-size="14.00"> </text>
</g>
<!-- tui_typer_tutor.screens.help.Help -->
<g id="node4" class="node">
<title>tui_typer_tutor.screens.help.Help</title>
<polygon fill="none" stroke="black" points="806,-45.5 806,-144.5 1075,-144.5 1075,-45.5 806,-45.5"/>
<text text-anchor="start" x="923.5" y="-129.3" font-family="Times,serif" font-size="14.00">Help</text>
<polyline fill="none" stroke="black" points="806,-121.5 1075,-121.5 "/>
<text text-anchor="start" x="814" y="-106.3" font-family="Times,serif" font-size="14.00">BINDINGS : ClassVar[list[Binding]]</text>
<text text-anchor="start" x="814" y="-91.3" font-family="Times,serif" font-size="14.00">DEFAULT_CSS : ClassVar[str]</text>
<polyline fill="none" stroke="black" points="806,-83.5 1075,-83.5 "/>
<text text-anchor="start" x="844" y="-68.3" font-family="Times,serif" font-size="14.00">action_close(): None</text>
<text text-anchor="start" x="844" y="-53.3" font-family="Times,serif" font-size="14.00">compose(): ComposeResult</text>
</g>
<!-- tui_typer_tutor.core.typing.Keys -->
<g id="node5" class="node">
<title>tui_typer_tutor.core.typing.Keys</title>
<polygon fill="none" stroke="black" points="1093,-23 1093,-167 1314,-167 1314,-23 1093,-23"/>
<text text-anchor="start" x="1186.5" y="-151.8" font-family="Times,serif" font-size="14.00">Keys</text>
<polyline fill="none" stroke="black" points="1093,-144 1314,-144 "/>
<text text-anchor="start" x="1101" y="-128.8" font-family="Times,serif" font-size="14.00">expected : list[ExpectedKey]</text>
<text text-anchor="start" x="1101" y="-113.8" font-family="Times,serif" font-size="14.00">last_was_delete</text>
<text text-anchor="start" x="1101" y="-98.8" font-family="Times,serif" font-size="14.00">last_was_delete : bool</text>
<text text-anchor="start" x="1101" y="-83.8" font-family="Times,serif" font-size="14.00">typed</text>
<text text-anchor="start" x="1101" y="-68.8" font-family="Times,serif" font-size="14.00">typed : list[TypedKey]</text>
<text text-anchor="start" x="1101" y="-53.8" font-family="Times,serif" font-size="14.00">typed_all : list[TypedKey]</text>
<polyline fill="none" stroke="black" points="1093,-46 1314,-46 "/>
<text text-anchor="start" x="1156.5" y="-30.8" font-family="Times,serif" font-size="14.00">store(): None</text>
</g>
<!-- tui_typer_tutor.screens.main.Main -->
<g id="node6" class="node">
<title>tui_typer_tutor.screens.main.Main</title>
<polygon fill="none" stroke="black" points="1229,-241.5 1229,-460.5 1498,-460.5 1498,-241.5 1229,-241.5"/>
<text text-anchor="start" x="1345" y="-445.3" font-family="Times,serif" font-size="14.00">Main</text>
<polyline fill="none" stroke="black" points="1229,-437.5 1498,-437.5 "/>
<text text-anchor="start" x="1237" y="-422.3" font-family="Times,serif" font-size="14.00">BINDINGS : ClassVar[list[Binding]]</text>
<text text-anchor="start" x="1237" y="-407.3" font-family="Times,serif" font-size="14.00">DEFAULT_CSS : ClassVar[str]</text>
<text text-anchor="start" x="1237" y="-392.3" font-family="Times,serif" font-size="14.00">keys</text>
<text text-anchor="start" x="1237" y="-377.3" font-family="Times,serif" font-size="14.00">keys</text>
<text text-anchor="start" x="1237" y="-362.3" font-family="Times,serif" font-size="14.00">metrics</text>
<text text-anchor="start" x="1237" y="-347.3" font-family="Times,serif" font-size="14.00">metrics</text>
<text text-anchor="start" x="1237" y="-332.3" font-family="Times,serif" font-size="14.00">width</text>
<text text-anchor="start" x="1237" y="-317.3" font-family="Times,serif" font-size="14.00">width : int</text>
<polyline fill="none" stroke="black" points="1229,-309.5 1498,-309.5 "/>
<text text-anchor="start" x="1259.5" y="-294.3" font-family="Times,serif" font-size="14.00">action_save_and_quit(): None</text>
<text text-anchor="start" x="1259.5" y="-279.3" font-family="Times,serif" font-size="14.00">compose(): ComposeResult</text>
<text text-anchor="start" x="1259.5" y="-264.3" font-family="Times,serif" font-size="14.00">on_key(event: Key): None</text>
<text text-anchor="start" x="1259.5" y="-249.3" font-family="Times,serif" font-size="14.00">on_mount(): None</text>
</g>
<!-- tui_typer_tutor.core.typing.Keys&#45;&gt;tui_typer_tutor.screens.main.Main -->
<g id="edge4" class="edge">
<title>tui_typer_tutor.core.typing.Keys&#45;&gt;tui_typer_tutor.screens.main.Main</title>
<path fill="none" stroke="black" d="M1235.82,-167.18C1245.05,-185.74 1255.58,-205.44 1266.5,-223 1268.23,-225.78 1270,-228.56 1271.81,-231.36"/>
<polygon fill="black" stroke="black" points="1271.9,-231.49 1278.55,-234.29 1278.52,-241.5 1271.88,-238.7 1271.9,-231.49"/>
<text text-anchor="middle" x="1283" y="-211.8" font-family="Times,serif" font-size="14.00" fill="green">keys</text>
</g>
<!-- tui_typer_tutor.core.typing.Keys&#45;&gt;tui_typer_tutor.screens.main.Main -->
<g id="edge5" class="edge">
<title>tui_typer_tutor.core.typing.Keys&#45;&gt;tui_typer_tutor.screens.main.Main</title>
<path fill="none" stroke="black" d="M1269.67,-167.16C1280.32,-180.25 1290.71,-194.17 1299.5,-208 1304.09,-215.22 1308.52,-222.82 1312.76,-230.6"/>
<polygon fill="black" stroke="black" points="1312.81,-230.7 1319.15,-234.13 1318.42,-241.3 1312.08,-237.87 1312.81,-230.7"/>
<text text-anchor="middle" x="1325" y="-211.8" font-family="Times,serif" font-size="14.00" fill="green">keys</text>
</g>
<!-- tui_typer_tutor.core.metrics.SessionMetrics -->
<g id="node7" class="node">
<title>tui_typer_tutor.core.metrics.SessionMetrics</title>
<polygon fill="none" stroke="black" points="1332.5,-0.5 1332.5,-189.5 1676.5,-189.5 1676.5,-0.5 1332.5,-0.5"/>
<text text-anchor="start" x="1449.5" y="-174.3" font-family="Times,serif" font-size="14.00">SessionMetrics</text>
<polyline fill="none" stroke="black" points="1332.5,-166.5 1676.5,-166.5 "/>
<text text-anchor="start" x="1361.5" y="-151.3" font-family="Times,serif" font-size="14.00">filename : str</text>
<text text-anchor="start" x="1361.5" y="-136.3" font-family="Times,serif" font-size="14.00">session_end : Optional[datetime | None]</text>
<text text-anchor="start" x="1361.5" y="-121.3" font-family="Times,serif" font-size="14.00">session_end : datetime</text>
<text text-anchor="start" x="1361.5" y="-106.3" font-family="Times,serif" font-size="14.00">session_start : datetime</text>
<text text-anchor="start" x="1361.5" y="-91.3" font-family="Times,serif" font-size="14.00">typed_correct</text>
<text text-anchor="start" x="1361.5" y="-76.3" font-family="Times,serif" font-size="14.00">typed_correct : int</text>
<text text-anchor="start" x="1361.5" y="-61.3" font-family="Times,serif" font-size="14.00">typed_incorrect</text>
<text text-anchor="start" x="1361.5" y="-46.3" font-family="Times,serif" font-size="14.00">typed_incorrect : int</text>
<polyline fill="none" stroke="black" points="1332.5,-38.5 1676.5,-38.5 "/>
<text text-anchor="start" x="1340.5" y="-23.3" font-family="Times,serif" font-size="14.00">end_session(keys: Keys): &#39;SessionMetrics&#39;</text>
<text text-anchor="start" x="1340.5" y="-8.3" font-family="Times,serif" font-size="14.00">from_filename(filename: str): &#39;SessionMetrics&#39;</text>
</g>
<!-- tui_typer_tutor.core.metrics.SessionMetrics&#45;&gt;tui_typer_tutor.screens.main.Main -->
<g id="edge2" class="edge">
<title>tui_typer_tutor.core.metrics.SessionMetrics&#45;&gt;tui_typer_tutor.screens.main.Main</title>
<path fill="none" stroke="black" d="M1431.64,-189.52C1427.71,-195.67 1423.96,-201.86 1420.5,-208 1416.47,-215.16 1412.58,-222.66 1408.86,-230.32"/>
<polygon fill="black" stroke="black" points="1408.83,-230.38 1409.89,-237.51 1403.71,-241.23 1402.66,-234.09 1408.83,-230.38"/>
<text text-anchor="middle" x="1448" y="-211.8" font-family="Times,serif" font-size="14.00" fill="green">metrics</text>
</g>
<!-- tui_typer_tutor.core.metrics.SessionMetrics&#45;&gt;tui_typer_tutor.screens.main.Main -->
<g id="edge3" class="edge">
<title>tui_typer_tutor.core.metrics.SessionMetrics&#45;&gt;tui_typer_tutor.screens.main.Main</title>
<path fill="none" stroke="black" d="M1488.72,-189.81C1485.16,-201.3 1480.81,-212.63 1475.5,-223 1474.17,-225.59 1472.78,-228.18 1471.32,-230.75"/>
<polygon fill="black" stroke="black" points="1471.21,-230.93 1471.56,-238.14 1465.04,-241.23 1464.7,-234.02 1471.21,-230.93"/>
<text text-anchor="middle" x="1508" y="-211.8" font-family="Times,serif" font-size="14.00" fill="green">metrics</text>
</g>
<!-- tui_typer_tutor.app.ttt.TuiTyperTutor -->
<g id="node8" class="node">
<title>tui_typer_tutor.app.ttt.TuiTyperTutor</title>
<polygon fill="none" stroke="black" points="1695,-45.5 1695,-144.5 1964,-144.5 1964,-45.5 1695,-45.5"/>
<text text-anchor="start" x="1778" y="-129.3" font-family="Times,serif" font-size="14.00">TuiTyperTutor</text>
<polyline fill="none" stroke="black" points="1695,-121.5 1964,-121.5 "/>
<text text-anchor="start" x="1703" y="-106.3" font-family="Times,serif" font-size="14.00">BINDINGS : ClassVar[list[Binding]]</text>
<text text-anchor="start" x="1703" y="-91.3" font-family="Times,serif" font-size="14.00">TITLE : str</text>
<polyline fill="none" stroke="black" points="1695,-83.5 1964,-83.5 "/>
<text text-anchor="start" x="1738.5" y="-68.3" font-family="Times,serif" font-size="14.00">action_show_help(): None</text>
<text text-anchor="start" x="1738.5" y="-53.3" font-family="Times,serif" font-size="14.00">on_mount(): None</text>
</g>
<!-- tui_typer_tutor.core.typing.TypedKey -->
<g id="node9" class="node">
<title>tui_typer_tutor.core.typing.TypedKey</title>
<polygon fill="none" stroke="black" points="477.5,-53 477.5,-137 787.5,-137 787.5,-53 477.5,-53"/>
<text text-anchor="start" x="597.5" y="-121.8" font-family="Times,serif" font-size="14.00">TypedKey</text>
<polyline fill="none" stroke="black" points="477.5,-114 787.5,-114 "/>
<text text-anchor="start" x="485.5" y="-98.8" font-family="Times,serif" font-size="14.00">expected : Optional[ExpectedKey | None]</text>
<text text-anchor="start" x="485.5" y="-83.8" font-family="Times,serif" font-size="14.00">was_correct</text>
<polyline fill="none" stroke="black" points="477.5,-76 787.5,-76 "/>
<text text-anchor="start" x="630" y="-60.8" font-family="Times,serif" font-size="14.00"> </text>
</g>
<!-- tui_typer_tutor.core.typing.TypedKey&#45;&gt;tui_typer_tutor.core.typing.ExpectedKey -->
<g id="edge1" class="edge">
<title>tui_typer_tutor.core.typing.TypedKey&#45;&gt;tui_typer_tutor.core.typing.ExpectedKey</title>
<path fill="none" stroke="black" d="M632.5,-137.09C632.5,-181.17 632.5,-251.25 632.5,-298.87"/>
<polygon fill="none" stroke="black" points="629,-298.97 632.5,-308.97 636,-298.97 629,-298.97"/>
</g>
<!-- tui_typer_tutor._RuntimeTypeCheckingModes -->
<g id="node10" class="node">
<title>tui_typer_tutor._RuntimeTypeCheckingModes</title>
<polygon fill="none" stroke="black" points="1982.5,-60.5 1982.5,-129.5 2214.5,-129.5 2214.5,-60.5 1982.5,-60.5"/>
<text text-anchor="start" x="1990.5" y="-114.3" font-family="Times,serif" font-size="14.00">_RuntimeTypeCheckingModes</text>
<polyline fill="none" stroke="black" points="1982.5,-106.5 2214.5,-106.5 "/>
<text text-anchor="start" x="2078.5" y="-91.3" font-family="Times,serif" font-size="14.00">name</text>
<polyline fill="none" stroke="black" points="1982.5,-83.5 2214.5,-83.5 "/>
<text text-anchor="start" x="2009" y="-68.3" font-family="Times,serif" font-size="14.00">from_environment(): Self</text>
</g>
</g>
</svg>
