<?xml version="1.0" encoding="UTF-8" standalone="no"?>
<!DOCTYPE svg PUBLIC "-//W3C//DTD SVG 1.1//EN"
 "http://www.w3.org/Graphics/SVG/1.1/DTD/svg11.dtd">
<!-- Generated by graphviz version 2.43.0 (0)
 -->
<!-- Title: classes Pages: 1 -->
<svg width="1909pt" height="469pt"
 viewBox="0.00 0.00 1909.00 469.00" xmlns="http://www.w3.org/2000/svg" xmlns:xlink="http://www.w3.org/1999/xlink">
<g id="graph0" class="graph" transform="scale(1 1) rotate(0) translate(4 465)">
<title>classes</title>
<polygon fill="white" stroke="transparent" points="-4,4 -4,-465 1905,-465 1905,4 -4,4"/>
<!-- tui_typer_tutor.core.typing.AtEndOfExpectedError -->
<g id="node1" class="node">
<title>tui_typer_tutor.core.typing.AtEndOfExpectedError</title>
<polygon fill="none" stroke="black" points="0,-59.6 0,-130.4 183,-130.4 183,-59.6 0,-59.6"/>
<text text-anchor="start" x="8" y="-115.2" font-family="Times,serif" font-size="14.00" fill="red">AtEndOfExpectedError</text>
<polyline fill="none" stroke="black" points="0,-107.4 183,-107.4 "/>
<polyline fill="none" stroke="black" points="0,-82.6 183,-82.6 "/>
<text text-anchor="start" x="89" y="-67.4" font-family="Times,serif" font-size="14.00" fill="red"> </text>
</g>
<!-- tui_typer_tutor.core.config.Config -->
<g id="node2" class="node">
<title>tui_typer_tutor.core.config.Config</title>
<polygon fill="none" stroke="black" points="201.5,-53 201.5,-137 325.5,-137 325.5,-53 201.5,-53"/>
<text text-anchor="start" x="240.5" y="-121.8" font-family="Times,serif" font-size="14.00">Config</text>
<polyline fill="none" stroke="black" points="201.5,-114 325.5,-114 "/>
<text text-anchor="start" x="209.5" y="-98.8" font-family="Times,serif" font-size="14.00">seed_file : Path</text>
<text text-anchor="start" x="209.5" y="-83.8" font-family="Times,serif" font-size="14.00">seed_file : Path</text>
<polyline fill="none" stroke="black" points="201.5,-76 325.5,-76 "/>
<text text-anchor="start" x="261" y="-60.8" font-family="Times,serif" font-size="14.00"> </text>
</g>
<!-- tui_typer_tutor.core.config.Config.Config -->
<g id="node3" class="node">
<title>tui_typer_tutor.core.config.Config.Config</title>
<polygon fill="none" stroke="black" points="343.5,-60.5 343.5,-129.5 467.5,-129.5 467.5,-60.5 343.5,-60.5"/>
<text text-anchor="start" x="382.5" y="-114.3" font-family="Times,serif" font-size="14.00">Config</text>
<polyline fill="none" stroke="black" points="343.5,-106.5 467.5,-106.5 "/>
<text text-anchor="start" x="351.5" y="-91.3" font-family="Times,serif" font-size="14.00">env_prefix : str</text>
<polyline fill="none" stroke="black" points="343.5,-83.5 467.5,-83.5 "/>
<text text-anchor="start" x="403" y="-68.3" font-family="Times,serif" font-size="14.00"> </text>
</g>
<!-- tui_typer_tutor.core.typing.ExpectedKey -->
<g id="node4" class="node">
<title>tui_typer_tutor.core.typing.ExpectedKey</title>
<polygon fill="none" stroke="black" points="550.5,-309 550.5,-393 660.5,-393 660.5,-309 550.5,-309"/>
<text text-anchor="start" x="558.5" y="-377.8" font-family="Times,serif" font-size="14.00">ExpectedKey</text>
<polyline fill="none" stroke="black" points="550.5,-370 660.5,-370 "/>
<text text-anchor="start" x="563" y="-354.8" font-family="Times,serif" font-size="14.00">text</text>
<text text-anchor="start" x="563" y="-339.8" font-family="Times,serif" font-size="14.00">textual : str</text>
<polyline fill="none" stroke="black" points="550.5,-332 660.5,-332 "/>
<text text-anchor="start" x="603" y="-316.8" font-family="Times,serif" font-size="14.00"> </text>
</g>
<!-- tui_typer_tutor.screens.help.Help -->
<g id="node5" class="node">
<title>tui_typer_tutor.screens.help.Help</title>
<polygon fill="none" stroke="black" points="743,-45.5 743,-144.5 1012,-144.5 1012,-45.5 743,-45.5"/>
<text text-anchor="start" x="860.5" y="-129.3" font-family="Times,serif" font-size="14.00">Help</text>
<polyline fill="none" stroke="black" points="743,-121.5 1012,-121.5 "/>
<text text-anchor="start" x="751" y="-106.3" font-family="Times,serif" font-size="14.00">BINDINGS : ClassVar[list[Binding]]</text>
<text text-anchor="start" x="751" y="-91.3" font-family="Times,serif" font-size="14.00">DEFAULT_CSS : ClassVar[str]</text>
<polyline fill="none" stroke="black" points="743,-83.5 1012,-83.5 "/>
<text text-anchor="start" x="781" y="-68.3" font-family="Times,serif" font-size="14.00">action_close(): None</text>
<text text-anchor="start" x="781" y="-53.3" font-family="Times,serif" font-size="14.00">compose(): ComposeResult</text>
</g>
<!-- tui_typer_tutor.core.typing.Keys -->
<g id="node6" class="node">
<title>tui_typer_tutor.core.typing.Keys</title>
<polygon fill="none" stroke="black" points="1030,-23 1030,-167 1251,-167 1251,-23 1030,-23"/>
<text text-anchor="start" x="1123.5" y="-151.8" font-family="Times,serif" font-size="14.00">Keys</text>
<polyline fill="none" stroke="black" points="1030,-144 1251,-144 "/>
<text text-anchor="start" x="1038" y="-128.8" font-family="Times,serif" font-size="14.00">expected : list[ExpectedKey]</text>
<text text-anchor="start" x="1038" y="-113.8" font-family="Times,serif" font-size="14.00">last_was_delete</text>
<text text-anchor="start" x="1038" y="-98.8" font-family="Times,serif" font-size="14.00">last_was_delete : bool</text>
<text text-anchor="start" x="1038" y="-83.8" font-family="Times,serif" font-size="14.00">typed</text>
<text text-anchor="start" x="1038" y="-68.8" font-family="Times,serif" font-size="14.00">typed : list[TypedKey]</text>
<text text-anchor="start" x="1038" y="-53.8" font-family="Times,serif" font-size="14.00">typed_all : list[TypedKey]</text>
<polyline fill="none" stroke="black" points="1030,-46 1251,-46 "/>
<text text-anchor="start" x="1093.5" y="-30.8" font-family="Times,serif" font-size="14.00">store(): None</text>
</g>
<!-- tui_typer_tutor.screens.main.Main -->
<g id="node7" class="node">
<title>tui_typer_tutor.screens.main.Main</title>
<polygon fill="none" stroke="black" points="1166,-241.5 1166,-460.5 1435,-460.5 1435,-241.5 1166,-241.5"/>
<text text-anchor="start" x="1282" y="-445.3" font-family="Times,serif" font-size="14.00">Main</text>
<polyline fill="none" stroke="black" points="1166,-437.5 1435,-437.5 "/>
<text text-anchor="start" x="1174" y="-422.3" font-family="Times,serif" font-size="14.00">BINDINGS : ClassVar[list[Binding]]</text>
<text text-anchor="start" x="1174" y="-407.3" font-family="Times,serif" font-size="14.00">DEFAULT_CSS : ClassVar[str]</text>
<text text-anchor="start" x="1174" y="-392.3" font-family="Times,serif" font-size="14.00">keys</text>
<text text-anchor="start" x="1174" y="-377.3" font-family="Times,serif" font-size="14.00">keys</text>
<text text-anchor="start" x="1174" y="-362.3" font-family="Times,serif" font-size="14.00">metrics</text>
<text text-anchor="start" x="1174" y="-347.3" font-family="Times,serif" font-size="14.00">metrics</text>
<text text-anchor="start" x="1174" y="-332.3" font-family="Times,serif" font-size="14.00">width</text>
<text text-anchor="start" x="1174" y="-317.3" font-family="Times,serif" font-size="14.00">width : int</text>
<polyline fill="none" stroke="black" points="1166,-309.5 1435,-309.5 "/>
<text text-anchor="start" x="1196.5" y="-294.3" font-family="Times,serif" font-size="14.00">action_save_and_quit(): None</text>
<text text-anchor="start" x="1196.5" y="-279.3" font-family="Times,serif" font-size="14.00">compose(): ComposeResult</text>
<text text-anchor="start" x="1196.5" y="-264.3" font-family="Times,serif" font-size="14.00">on_key(event: Key): None</text>
<text text-anchor="start" x="1196.5" y="-249.3" font-family="Times,serif" font-size="14.00">on_mount(): None</text>
</g>
<!-- tui_typer_tutor.core.typing.Keys&#45;&gt;tui_typer_tutor.screens.main.Main -->
<g id="edge4" class="edge">
<title>tui_typer_tutor.core.typing.Keys&#45;&gt;tui_typer_tutor.screens.main.Main</title>
<path fill="none" stroke="black" d="M1172.82,-167.18C1182.05,-185.74 1192.58,-205.44 1203.5,-223 1205.23,-225.78 1207,-228.56 1208.81,-231.36"/>
<polygon fill="black" stroke="black" points="1208.9,-231.49 1215.55,-234.29 1215.52,-241.5 1208.88,-238.7 1208.9,-231.49"/>
<text text-anchor="middle" x="1220" y="-211.8" font-family="Times,serif" font-size="14.00" fill="green">keys</text>
</g>
<!-- tui_typer_tutor.core.typing.Keys&#45;&gt;tui_typer_tutor.screens.main.Main -->
<g id="edge5" class="edge">
<title>tui_typer_tutor.core.typing.Keys&#45;&gt;tui_typer_tutor.screens.main.Main</title>
<path fill="none" stroke="black" d="M1206.67,-167.16C1217.32,-180.25 1227.71,-194.17 1236.5,-208 1241.09,-215.22 1245.52,-222.82 1249.76,-230.6"/>
<polygon fill="black" stroke="black" points="1249.81,-230.7 1256.15,-234.13 1255.42,-241.3 1249.08,-237.87 1249.81,-230.7"/>
<text text-anchor="middle" x="1262" y="-211.8" font-family="Times,serif" font-size="14.00" fill="green">keys</text>
</g>
<!-- tui_typer_tutor.core.metrics.SessionMetrics -->
<g id="node8" class="node">
<title>tui_typer_tutor.core.metrics.SessionMetrics</title>
<polygon fill="none" stroke="black" points="1269.5,-0.5 1269.5,-189.5 1613.5,-189.5 1613.5,-0.5 1269.5,-0.5"/>
<text text-anchor="start" x="1386.5" y="-174.3" font-family="Times,serif" font-size="14.00">SessionMetrics</text>
<polyline fill="none" stroke="black" points="1269.5,-166.5 1613.5,-166.5 "/>
<text text-anchor="start" x="1298.5" y="-151.3" font-family="Times,serif" font-size="14.00">filename : str</text>
<text text-anchor="start" x="1298.5" y="-136.3" font-family="Times,serif" font-size="14.00">session_end : Optional[datetime | None]</text>
<text text-anchor="start" x="1298.5" y="-121.3" font-family="Times,serif" font-size="14.00">session_end : datetime</text>
<text text-anchor="start" x="1298.5" y="-106.3" font-family="Times,serif" font-size="14.00">session_start : datetime</text>
<text text-anchor="start" x="1298.5" y="-91.3" font-family="Times,serif" font-size="14.00">typed_correct</text>
<text text-anchor="start" x="1298.5" y="-76.3" font-family="Times,serif" font-size="14.00">typed_correct : int</text>
<text text-anchor="start" x="1298.5" y="-61.3" font-family="Times,serif" font-size="14.00">typed_incorrect</text>
<text text-anchor="start" x="1298.5" y="-46.3" font-family="Times,serif" font-size="14.00">typed_incorrect : int</text>
<polyline fill="none" stroke="black" points="1269.5,-38.5 1613.5,-38.5 "/>
<text text-anchor="start" x="1277.5" y="-23.3" font-family="Times,serif" font-size="14.00">end_session(keys: Keys): &#39;SessionMetrics&#39;</text>
<text text-anchor="start" x="1277.5" y="-8.3" font-family="Times,serif" font-size="14.00">from_filename(filename: str): &#39;SessionMetrics&#39;</text>
</g>
<!-- tui_typer_tutor.core.metrics.SessionMetrics&#45;&gt;tui_typer_tutor.screens.main.Main -->
<g id="edge2" class="edge">
<title>tui_typer_tutor.core.metrics.SessionMetrics&#45;&gt;tui_typer_tutor.screens.main.Main</title>
<path fill="none" stroke="black" d="M1368.64,-189.52C1364.71,-195.67 1360.96,-201.86 1357.5,-208 1353.47,-215.16 1349.58,-222.66 1345.86,-230.32"/>
<polygon fill="black" stroke="black" points="1345.83,-230.38 1346.89,-237.51 1340.71,-241.23 1339.66,-234.09 1345.83,-230.38"/>
<text text-anchor="middle" x="1385" y="-211.8" font-family="Times,serif" font-size="14.00" fill="green">metrics</text>
</g>
<!-- tui_typer_tutor.core.metrics.SessionMetrics&#45;&gt;tui_typer_tutor.screens.main.Main -->
<g id="edge3" class="edge">
<title>tui_typer_tutor.core.metrics.SessionMetrics&#45;&gt;tui_typer_tutor.screens.main.Main</title>
<path fill="none" stroke="black" d="M1425.72,-189.81C1422.16,-201.3 1417.81,-212.63 1412.5,-223 1411.17,-225.59 1409.78,-228.18 1408.32,-230.75"/>
<polygon fill="black" stroke="black" points="1408.21,-230.93 1408.56,-238.14 1402.04,-241.23 1401.7,-234.02 1408.21,-230.93"/>
<text text-anchor="middle" x="1445" y="-211.8" font-family="Times,serif" font-size="14.00" fill="green">metrics</text>
</g>
<!-- tui_typer_tutor.app.ttt.TuiTyperTutor -->
<g id="node9" class="node">
<title>tui_typer_tutor.app.ttt.TuiTyperTutor</title>
<polygon fill="none" stroke="black" points="1632,-45.5 1632,-144.5 1901,-144.5 1901,-45.5 1632,-45.5"/>
<text text-anchor="start" x="1715" y="-129.3" font-family="Times,serif" font-size="14.00">TuiTyperTutor</text>
<polyline fill="none" stroke="black" points="1632,-121.5 1901,-121.5 "/>
<text text-anchor="start" x="1640" y="-106.3" font-family="Times,serif" font-size="14.00">BINDINGS : ClassVar[list[Binding]]</text>
<text text-anchor="start" x="1640" y="-91.3" font-family="Times,serif" font-size="14.00">TITLE : str</text>
<polyline fill="none" stroke="black" points="1632,-83.5 1901,-83.5 "/>
<text text-anchor="start" x="1675.5" y="-68.3" font-family="Times,serif" font-size="14.00">action_show_help(): None</text>
<text text-anchor="start" x="1675.5" y="-53.3" font-family="Times,serif" font-size="14.00">on_mount(): None</text>
</g>
<!-- tui_typer_tutor.core.typing.TypedKey -->
<g id="node10" class="node">
<title>tui_typer_tutor.core.typing.TypedKey</title>
<polygon fill="none" stroke="black" points="486,-53 486,-137 725,-137 725,-53 486,-53"/>
<text text-anchor="start" x="570.5" y="-121.8" font-family="Times,serif" font-size="14.00">TypedKey</text>
<polyline fill="none" stroke="black" points="486,-114 725,-114 "/>
<text text-anchor="start" x="494" y="-98.8" font-family="Times,serif" font-size="14.00">expected : ExpectedKey | None</text>
<text text-anchor="start" x="494" y="-83.8" font-family="Times,serif" font-size="14.00">was_correct</text>
<polyline fill="none" stroke="black" points="486,-76 725,-76 "/>
<text text-anchor="start" x="603" y="-60.8" font-family="Times,serif" font-size="14.00"> </text>
</g>
<!-- tui_typer_tutor.core.typing.TypedKey&#45;&gt;tui_typer_tutor.core.typing.ExpectedKey -->
<g id="edge1" class="edge">
<title>tui_typer_tutor.core.typing.TypedKey&#45;&gt;tui_typer_tutor.core.typing.ExpectedKey</title>
<path fill="none" stroke="black" d="M605.5,-137.09C605.5,-181.17 605.5,-251.25 605.5,-298.87"/>
<polygon fill="none" stroke="black" points="602,-298.97 605.5,-308.97 609,-298.97 602,-298.97"/>
</g>
</g>
</svg>
