<?xml version="1.0" encoding="UTF-8" standalone="no"?>
<!DOCTYPE svg PUBLIC "-//W3C//DTD SVG 1.1//EN"
 "http://www.w3.org/Graphics/SVG/1.1/DTD/svg11.dtd">
<!-- Generated by graphviz version 2.43.0 (0)
 -->
<!-- Title: classes Pages: 1 -->
<svg width="848pt" height="364pt"
 viewBox="0.00 0.00 848.00 364.00" xmlns="http://www.w3.org/2000/svg" xmlns:xlink="http://www.w3.org/1999/xlink">
<g id="graph0" class="graph" transform="scale(1 1) rotate(0) translate(4 360)">
<title>classes</title>
<polygon fill="white" stroke="transparent" points="-4,4 -4,-360 844,-360 844,4 -4,4"/>
<!-- tui_typer_tutor.core.typing.AtEndOfExpectedError -->
<g id="node1" class="node">
<title>tui_typer_tutor.core.typing.AtEndOfExpectedError</title>
<polygon fill="none" stroke="black" points="0,-37.1 0,-107.9 183,-107.9 183,-37.1 0,-37.1"/>
<text text-anchor="start" x="8" y="-92.7" font-family="Times,serif" font-size="14.00" fill="red">AtEndOfExpectedError</text>
<polyline fill="none" stroke="black" points="0,-84.9 183,-84.9 "/>
<polyline fill="none" stroke="black" points="0,-60.1 183,-60.1 "/>
<text text-anchor="start" x="89" y="-44.9" font-family="Times,serif" font-size="14.00" fill="red"> </text>
</g>
<!-- tui_typer_tutor.core.typing.ExpectedKey -->
<g id="node2" class="node">
<title>tui_typer_tutor.core.typing.ExpectedKey</title>
<polygon fill="none" stroke="black" points="265.5,-234 265.5,-318 375.5,-318 375.5,-234 265.5,-234"/>
<text text-anchor="start" x="273.5" y="-302.8" font-family="Times,serif" font-size="14.00">ExpectedKey</text>
<polyline fill="none" stroke="black" points="265.5,-295 375.5,-295 "/>
<text text-anchor="start" x="278" y="-279.8" font-family="Times,serif" font-size="14.00">text</text>
<text text-anchor="start" x="278" y="-264.8" font-family="Times,serif" font-size="14.00">textual : str</text>
<polyline fill="none" stroke="black" points="265.5,-257 375.5,-257 "/>
<text text-anchor="start" x="318" y="-241.8" font-family="Times,serif" font-size="14.00"> </text>
</g>
<!-- tui_typer_tutor.core.typing.Keys -->
<g id="node3" class="node">
<title>tui_typer_tutor.core.typing.Keys</title>
<polygon fill="none" stroke="black" points="458,-0.5 458,-144.5 679,-144.5 679,-0.5 458,-0.5"/>
<text text-anchor="start" x="551.5" y="-129.3" font-family="Times,serif" font-size="14.00">Keys</text>
<polyline fill="none" stroke="black" points="458,-121.5 679,-121.5 "/>
<text text-anchor="start" x="466" y="-106.3" font-family="Times,serif" font-size="14.00">expected : list[ExpectedKey]</text>
<text text-anchor="start" x="466" y="-91.3" font-family="Times,serif" font-size="14.00">last_was_delete</text>
<text text-anchor="start" x="466" y="-76.3" font-family="Times,serif" font-size="14.00">last_was_delete : bool</text>
<text text-anchor="start" x="466" y="-61.3" font-family="Times,serif" font-size="14.00">typed</text>
<text text-anchor="start" x="466" y="-46.3" font-family="Times,serif" font-size="14.00">typed : list[TypedKey]</text>
<text text-anchor="start" x="466" y="-31.3" font-family="Times,serif" font-size="14.00">typed_all : list[TypedKey]</text>
<polyline fill="none" stroke="black" points="458,-23.5 679,-23.5 "/>
<text text-anchor="start" x="521.5" y="-8.3" font-family="Times,serif" font-size="14.00">store(): None</text>
</g>
<!-- tui_typer_tutor.screens.main.Main -->
<g id="node4" class="node">
<title>tui_typer_tutor.screens.main.Main</title>
<polygon fill="none" stroke="black" points="442,-196.5 442,-355.5 711,-355.5 711,-196.5 442,-196.5"/>
<text text-anchor="start" x="558" y="-340.3" font-family="Times,serif" font-size="14.00">Main</text>
<polyline fill="none" stroke="black" points="442,-332.5 711,-332.5 "/>
<text text-anchor="start" x="450" y="-317.3" font-family="Times,serif" font-size="14.00">BINDINGS : ClassVar[list[Binding]]</text>
<text text-anchor="start" x="450" y="-302.3" font-family="Times,serif" font-size="14.00">DEFAULT_CSS : ClassVar[str]</text>
<text text-anchor="start" x="450" y="-287.3" font-family="Times,serif" font-size="14.00">keys</text>
<text text-anchor="start" x="450" y="-272.3" font-family="Times,serif" font-size="14.00">keys</text>
<polyline fill="none" stroke="black" points="442,-264.5 711,-264.5 "/>
<text text-anchor="start" x="472.5" y="-249.3" font-family="Times,serif" font-size="14.00">action_quit_and_save(): None</text>
<text text-anchor="start" x="472.5" y="-234.3" font-family="Times,serif" font-size="14.00">compose(): ComposeResult</text>
<text text-anchor="start" x="472.5" y="-219.3" font-family="Times,serif" font-size="14.00">on_key(event: Key): None</text>
<text text-anchor="start" x="472.5" y="-204.3" font-family="Times,serif" font-size="14.00">on_mount(): None</text>
</g>
<!-- tui_typer_tutor.core.typing.Keys&#45;&gt;tui_typer_tutor.screens.main.Main -->
<g id="edge2" class="edge">
<title>tui_typer_tutor.core.typing.Keys&#45;&gt;tui_typer_tutor.screens.main.Main</title>
<path fill="none" stroke="black" d="M541.76,-144.56C540,-155.69 539.6,-167.11 541.5,-178 541.88,-180.19 542.31,-182.39 542.78,-184.6"/>
<polygon fill="black" stroke="black" points="542.83,-184.81 548.12,-189.71 545.63,-196.47 540.34,-191.57 542.83,-184.81"/>
<text text-anchor="middle" x="558" y="-166.8" font-family="Times,serif" font-size="14.00" fill="green">keys</text>
</g>
<!-- tui_typer_tutor.core.typing.Keys&#45;&gt;tui_typer_tutor.screens.main.Main -->
<g id="edge3" class="edge">
<title>tui_typer_tutor.core.typing.Keys&#45;&gt;tui_typer_tutor.screens.main.Main</title>
<path fill="none" stroke="black" d="M573.6,-144.81C573.94,-150.96 574.25,-157.09 574.5,-163 574.79,-169.91 575.04,-177.06 575.26,-184.25"/>
<polygon fill="black" stroke="black" points="575.26,-184.36 579.42,-190.25 575.58,-196.35 571.42,-190.46 575.26,-184.36"/>
<text text-anchor="middle" x="591" y="-166.8" font-family="Times,serif" font-size="14.00" fill="green">keys</text>
</g>
<!-- tui_typer_tutor.app.ttt.TuiTyperTutor -->
<g id="node5" class="node">
<title>tui_typer_tutor.app.ttt.TuiTyperTutor</title>
<polygon fill="none" stroke="black" points="697,-38 697,-107 840,-107 840,-38 697,-38"/>
<text text-anchor="start" x="717" y="-91.8" font-family="Times,serif" font-size="14.00">TuiTyperTutor</text>
<polyline fill="none" stroke="black" points="697,-84 840,-84 "/>
<text text-anchor="start" x="730" y="-68.8" font-family="Times,serif" font-size="14.00">TITLE : str</text>
<polyline fill="none" stroke="black" points="697,-61 840,-61 "/>
<text text-anchor="start" x="705" y="-45.8" font-family="Times,serif" font-size="14.00">on_mount(): None</text>
</g>
<!-- tui_typer_tutor.core.typing.TypedKey -->
<g id="node6" class="node">
<title>tui_typer_tutor.core.typing.TypedKey</title>
<polygon fill="none" stroke="black" points="201,-30.5 201,-114.5 440,-114.5 440,-30.5 201,-30.5"/>
<text text-anchor="start" x="285.5" y="-99.3" font-family="Times,serif" font-size="14.00">TypedKey</text>
<polyline fill="none" stroke="black" points="201,-91.5 440,-91.5 "/>
<text text-anchor="start" x="209" y="-76.3" font-family="Times,serif" font-size="14.00">expected : ExpectedKey | None</text>
<text text-anchor="start" x="209" y="-61.3" font-family="Times,serif" font-size="14.00">was_correct</text>
<polyline fill="none" stroke="black" points="201,-53.5 440,-53.5 "/>
<text text-anchor="start" x="318" y="-38.3" font-family="Times,serif" font-size="14.00"> </text>
</g>
<!-- tui_typer_tutor.core.typing.TypedKey&#45;&gt;tui_typer_tutor.core.typing.ExpectedKey -->
<g id="edge1" class="edge">
<title>tui_typer_tutor.core.typing.TypedKey&#45;&gt;tui_typer_tutor.core.typing.ExpectedKey</title>
<path fill="none" stroke="black" d="M320.5,-114.76C320.5,-146.28 320.5,-189.88 320.5,-223.65"/>
<polygon fill="none" stroke="black" points="317,-223.79 320.5,-233.79 324,-223.79 317,-223.79"/>
</g>
</g>
</svg>
