<?xml version="1.0" encoding="UTF-8" standalone="no"?>
<!DOCTYPE svg PUBLIC "-//W3C//DTD SVG 1.1//EN"
 "http://www.w3.org/Graphics/SVG/1.1/DTD/svg11.dtd">
<!-- Generated by graphviz version 2.43.0 (0)
 -->
<!-- Title: classes Pages: 1 -->
<svg width="559pt" height="560pt"
 viewBox="0.00 0.00 558.50 560.00" xmlns="http://www.w3.org/2000/svg" xmlns:xlink="http://www.w3.org/1999/xlink">
<g id="graph0" class="graph" transform="scale(1 1) rotate(0) translate(4 556)">
<title>classes</title>
<polygon fill="white" stroke="transparent" points="-4,4 -4,-556 554.5,-556 554.5,4 -4,4"/>
<!-- tui_typer_tutor.core.typing.ExpectedKey -->
<g id="node1" class="node">
<title>tui_typer_tutor.core.typing.ExpectedKey</title>
<polygon fill="none" stroke="black" points="0,-0.5 0,-99.5 110,-99.5 110,-0.5 0,-0.5"/>
<text text-anchor="start" x="8" y="-84.3" font-family="Times,serif" font-size="14.00">ExpectedKey</text>
<polyline fill="none" stroke="black" points="0,-76.5 110,-76.5 "/>
<text text-anchor="start" x="24.5" y="-61.3" font-family="Times,serif" font-size="14.00">raw : str</text>
<text text-anchor="start" x="24.5" y="-46.3" font-family="Times,serif" font-size="14.00">text</text>
<text text-anchor="start" x="24.5" y="-31.3" font-family="Times,serif" font-size="14.00">width</text>
<polyline fill="none" stroke="black" points="0,-23.5 110,-23.5 "/>
<text text-anchor="start" x="52.5" y="-8.3" font-family="Times,serif" font-size="14.00"> </text>
</g>
<!-- tui_typer_tutor.core.typing.TypedKey -->
<g id="node5" class="node">
<title>tui_typer_tutor.core.typing.TypedKey</title>
<polygon fill="none" stroke="black" points="4,-204 4,-288 106,-288 106,-204 4,-204"/>
<text text-anchor="start" x="20" y="-272.8" font-family="Times,serif" font-size="14.00">TypedKey</text>
<polyline fill="none" stroke="black" points="4,-265 106,-265 "/>
<text text-anchor="start" x="12" y="-249.8" font-family="Times,serif" font-size="14.00">expected</text>
<text text-anchor="start" x="12" y="-234.8" font-family="Times,serif" font-size="14.00">was_correct</text>
<polyline fill="none" stroke="black" points="4,-227 106,-227 "/>
<text text-anchor="start" x="52.5" y="-211.8" font-family="Times,serif" font-size="14.00"> </text>
</g>
<!-- tui_typer_tutor.core.typing.ExpectedKey&#45;&gt;tui_typer_tutor.core.typing.TypedKey -->
<g id="edge2" class="edge">
<title>tui_typer_tutor.core.typing.ExpectedKey&#45;&gt;tui_typer_tutor.core.typing.TypedKey</title>
<path fill="none" stroke="black" d="M19.47,-99.59C16.43,-105.56 13.83,-111.77 12,-118 4.71,-142.86 11.88,-170.11 22.32,-192.97"/>
<polygon fill="black" stroke="black" points="22.36,-193.04 28.6,-196.66 27.66,-203.81 21.42,-200.19 22.36,-193.04"/>
<text text-anchor="middle" x="44.5" y="-121.8" font-family="Times,serif" font-size="14.00" fill="green">expected</text>
</g>
<!-- tui_typer_tutor.core.typing.Keys -->
<g id="node2" class="node">
<title>tui_typer_tutor.core.typing.Keys</title>
<polygon fill="none" stroke="black" points="124.5,-151.5 124.5,-340.5 507.5,-340.5 507.5,-151.5 124.5,-151.5"/>
<text text-anchor="start" x="299" y="-325.3" font-family="Times,serif" font-size="14.00">Keys</text>
<polyline fill="none" stroke="black" points="124.5,-317.5 507.5,-317.5 "/>
<text text-anchor="start" x="213.5" y="-302.3" font-family="Times,serif" font-size="14.00">accum</text>
<text text-anchor="start" x="213.5" y="-287.3" font-family="Times,serif" font-size="14.00">expected : list[ExpectedKey]</text>
<text text-anchor="start" x="213.5" y="-272.3" font-family="Times,serif" font-size="14.00">last_was_delete</text>
<text text-anchor="start" x="213.5" y="-257.3" font-family="Times,serif" font-size="14.00">last_was_delete : bool</text>
<text text-anchor="start" x="213.5" y="-242.3" font-family="Times,serif" font-size="14.00">typed</text>
<text text-anchor="start" x="213.5" y="-227.3" font-family="Times,serif" font-size="14.00">typed : list[TypedKey]</text>
<text text-anchor="start" x="213.5" y="-212.3" font-family="Times,serif" font-size="14.00">typed_all : list[TypedKey]</text>
<polyline fill="none" stroke="black" points="124.5,-204.5 507.5,-204.5 "/>
<text text-anchor="start" x="132.5" y="-189.3" font-family="Times,serif" font-size="14.00">get_expected(start: int, end: int): list[ExpectedKey]</text>
<text text-anchor="start" x="132.5" y="-174.3" font-family="Times,serif" font-size="14.00">get_typed(start: int, end: int): list[TypedKey]</text>
<text text-anchor="start" x="132.5" y="-159.3" font-family="Times,serif" font-size="14.00">store(key: TypedKey): None</text>
</g>
<!-- tui_typer_tutor.screens.main.Main -->
<g id="node3" class="node">
<title>tui_typer_tutor.screens.main.Main</title>
<polygon fill="none" stroke="black" points="181.5,-392.5 181.5,-551.5 450.5,-551.5 450.5,-392.5 181.5,-392.5"/>
<text text-anchor="start" x="297.5" y="-536.3" font-family="Times,serif" font-size="14.00">Main</text>
<polyline fill="none" stroke="black" points="181.5,-528.5 450.5,-528.5 "/>
<text text-anchor="start" x="189.5" y="-513.3" font-family="Times,serif" font-size="14.00">BINDINGS : ClassVar[list[Binding]]</text>
<text text-anchor="start" x="189.5" y="-498.3" font-family="Times,serif" font-size="14.00">DEFAULT_CSS : ClassVar[str]</text>
<text text-anchor="start" x="189.5" y="-483.3" font-family="Times,serif" font-size="14.00">keys</text>
<text text-anchor="start" x="189.5" y="-468.3" font-family="Times,serif" font-size="14.00">keys</text>
<polyline fill="none" stroke="black" points="181.5,-460.5 450.5,-460.5 "/>
<text text-anchor="start" x="212" y="-445.3" font-family="Times,serif" font-size="14.00">action_quit_and_save(): None</text>
<text text-anchor="start" x="212" y="-430.3" font-family="Times,serif" font-size="14.00">compose(): ComposeResult</text>
<text text-anchor="start" x="212" y="-415.3" font-family="Times,serif" font-size="14.00">on_key(event: Key): None</text>
<text text-anchor="start" x="212" y="-400.3" font-family="Times,serif" font-size="14.00">on_mount(): None</text>
</g>
<!-- tui_typer_tutor.core.typing.Keys&#45;&gt;tui_typer_tutor.screens.main.Main -->
<g id="edge3" class="edge">
<title>tui_typer_tutor.core.typing.Keys&#45;&gt;tui_typer_tutor.screens.main.Main</title>
<path fill="none" stroke="black" d="M288.62,-340.7C287.57,-351.88 287.52,-363.17 289,-374 289.3,-376.18 289.63,-378.38 290,-380.59"/>
<polygon fill="black" stroke="black" points="290.02,-380.7 295.05,-385.86 292.23,-392.5 287.19,-387.34 290.02,-380.7"/>
<text text-anchor="middle" x="305.5" y="-362.8" font-family="Times,serif" font-size="14.00" fill="green">keys</text>
</g>
<!-- tui_typer_tutor.core.typing.Keys&#45;&gt;tui_typer_tutor.screens.main.Main -->
<g id="edge4" class="edge">
<title>tui_typer_tutor.core.typing.Keys&#45;&gt;tui_typer_tutor.screens.main.Main</title>
<path fill="none" stroke="black" d="M322.08,-340.62C322.32,-351.86 322.33,-363.19 322,-374 321.94,-376.06 321.87,-378.14 321.79,-380.24"/>
<polygon fill="black" stroke="black" points="321.78,-380.41 325.52,-386.58 321.27,-392.4 317.53,-386.24 321.78,-380.41"/>
<text text-anchor="middle" x="338.5" y="-362.8" font-family="Times,serif" font-size="14.00" fill="green">keys</text>
</g>
<!-- tui_typer_tutor.app.ttt.TuiTyperTutor -->
<g id="node4" class="node">
<title>tui_typer_tutor.app.ttt.TuiTyperTutor</title>
<polygon fill="none" stroke="black" points="407.5,-15.5 407.5,-84.5 550.5,-84.5 550.5,-15.5 407.5,-15.5"/>
<text text-anchor="start" x="427.5" y="-69.3" font-family="Times,serif" font-size="14.00">TuiTyperTutor</text>
<polyline fill="none" stroke="black" points="407.5,-61.5 550.5,-61.5 "/>
<text text-anchor="start" x="440.5" y="-46.3" font-family="Times,serif" font-size="14.00">TITLE : str</text>
<polyline fill="none" stroke="black" points="407.5,-38.5 550.5,-38.5 "/>
<text text-anchor="start" x="415.5" y="-23.3" font-family="Times,serif" font-size="14.00">on_mount(): None</text>
</g>
<!-- tui_typer_tutor.core.typing.TypedKey&#45;&gt;tui_typer_tutor.core.typing.ExpectedKey -->
<g id="edge1" class="edge">
<title>tui_typer_tutor.core.typing.TypedKey&#45;&gt;tui_typer_tutor.core.typing.ExpectedKey</title>
<path fill="none" stroke="black" d="M71.61,-203.89C79.6,-179.06 86.38,-146.76 81,-118 80.47,-115.18 79.83,-112.33 79.1,-109.48"/>
<polygon fill="none" stroke="black" points="82.44,-108.42 76.3,-99.79 75.71,-110.37 82.44,-108.42"/>
</g>
<!-- tui_typer_tutor.core.typing._KeysAccum -->
<g id="node6" class="node">
<title>tui_typer_tutor.core.typing._KeysAccum</title>
<polygon fill="none" stroke="black" points="242.5,-8 242.5,-92 389.5,-92 389.5,-8 242.5,-8"/>
<text text-anchor="start" x="272" y="-76.8" font-family="Times,serif" font-size="14.00">_KeysAccum</text>
<polyline fill="none" stroke="black" points="242.5,-69 389.5,-69 "/>
<text text-anchor="start" x="250.5" y="-53.8" font-family="Times,serif" font-size="14.00">expected : list[int]</text>
<text text-anchor="start" x="250.5" y="-38.8" font-family="Times,serif" font-size="14.00">typed : list[int]</text>
<polyline fill="none" stroke="black" points="242.5,-31 389.5,-31 "/>
<text text-anchor="start" x="313.5" y="-15.8" font-family="Times,serif" font-size="14.00"> </text>
</g>
<!-- tui_typer_tutor.core.typing._KeysAccum&#45;&gt;tui_typer_tutor.core.typing.Keys -->
<g id="edge5" class="edge">
<title>tui_typer_tutor.core.typing._KeysAccum&#45;&gt;tui_typer_tutor.core.typing.Keys</title>
<path fill="none" stroke="black" d="M316,-92.14C316,-106.1 316,-122.41 316,-139.07"/>
<polygon fill="black" stroke="black" points="316,-139.23 320,-145.23 316,-151.23 312,-145.23 316,-139.23"/>
<text text-anchor="middle" x="339" y="-121.8" font-family="Times,serif" font-size="14.00" fill="green">accum</text>
</g>
</g>
</svg>
