<?xml version="1.0" encoding="UTF-8" standalone="no"?>
<!DOCTYPE svg PUBLIC "-//W3C//DTD SVG 1.1//EN"
 "http://www.w3.org/Graphics/SVG/1.1/DTD/svg11.dtd">
<!-- Generated by graphviz version 8.0.5 (20230430.1635)
 -->
<!-- Title: classes Pages: 1 -->
<svg width="1546pt" height="507pt"
 viewBox="0.00 0.00 1546.00 506.50" xmlns="http://www.w3.org/2000/svg" xmlns:xlink="http://www.w3.org/1999/xlink">
<g id="graph0" class="graph" transform="scale(1 1) rotate(0) translate(4 502.5)">
<title>classes</title>
<polygon fill="white" stroke="none" points="-4,4 -4,-502.5 1542,-502.5 1542,4 -4,4"/>
<!-- tui_typer_tutor.core.typing.AtEndOfExpectedError -->
<g id="node1" class="node">
<title>tui_typer_tutor.core.typing.AtEndOfExpectedError</title>
<polygon fill="none" stroke="black" points="0,-78.75 0,-127.75 144.25,-127.75 144.25,-78.75 0,-78.75"/>
<text text-anchor="start" x="8" y="-110.45" font-family="Times,serif" font-size="14.00" fill="red">AtEndOfExpectedError</text>
<polyline fill="none" stroke="black" points="0,-103.25 144.25,-103.25"/>
<polyline fill="none" stroke="black" points="0,-103.25 144.25,-103.25"/>
<text text-anchor="start" x="70.25" y="-85.95" font-family="Times,serif" font-size="14.00" fill="red"> </text>
</g>
<!-- tui_typer_tutor.core.config.Config -->
<g id="node2" class="node">
<title>tui_typer_tutor.core.config.Config</title>
<polygon fill="none" stroke="black" points="162.12,-58.25 162.12,-148.25 262.12,-148.25 262.12,-58.25 162.12,-58.25"/>
<text text-anchor="start" x="193.38" y="-130.95" font-family="Times,serif" font-size="14.00">Config</text>
<polyline fill="none" stroke="black" points="162.12,-123.75 262.12,-123.75"/>
<text text-anchor="start" x="170.12" y="-106.45" font-family="Times,serif" font-size="14.00">seed_file : Path</text>
<text text-anchor="start" x="170.12" y="-89.95" font-family="Times,serif" font-size="14.00">seed_file : Path</text>
<polyline fill="none" stroke="black" points="162.12,-82.75 262.12,-82.75"/>
<text text-anchor="start" x="210.25" y="-65.45" font-family="Times,serif" font-size="14.00"> </text>
</g>
<!-- tui_typer_tutor.core.config.Config.Config -->
<g id="node3" class="node">
<title>tui_typer_tutor.core.config.Config.Config</title>
<polygon fill="none" stroke="black" points="280.5,-66.5 280.5,-140 379.75,-140 379.75,-66.5 280.5,-66.5"/>
<text text-anchor="start" x="311.38" y="-122.7" font-family="Times,serif" font-size="14.00">Config</text>
<polyline fill="none" stroke="black" points="280.5,-115.5 379.75,-115.5"/>
<text text-anchor="start" x="288.5" y="-98.2" font-family="Times,serif" font-size="14.00">env_prefix : str</text>
<polyline fill="none" stroke="black" points="280.5,-91 379.75,-91"/>
<text text-anchor="start" x="328.25" y="-73.7" font-family="Times,serif" font-size="14.00"> </text>
</g>
<!-- tui_typer_tutor.core.typing.ExpectedKey -->
<g id="node4" class="node">
<title>tui_typer_tutor.core.typing.ExpectedKey</title>
<polygon fill="none" stroke="black" points="447.75,-333.75 447.75,-423.75 536.5,-423.75 536.5,-333.75 447.75,-333.75"/>
<text text-anchor="start" x="455.75" y="-406.45" font-family="Times,serif" font-size="14.00">ExpectedKey</text>
<polyline fill="none" stroke="black" points="447.75,-399.25 536.5,-399.25"/>
<text text-anchor="start" x="461.38" y="-381.95" font-family="Times,serif" font-size="14.00">text</text>
<text text-anchor="start" x="461.38" y="-365.45" font-family="Times,serif" font-size="14.00">textual : str</text>
<polyline fill="none" stroke="black" points="447.75,-358.25 536.5,-358.25"/>
<text text-anchor="start" x="490.25" y="-340.95" font-family="Times,serif" font-size="14.00"> </text>
</g>
<!-- tui_typer_tutor.screens.help.Help -->
<g id="node5" class="node">
<title>tui_typer_tutor.screens.help.Help</title>
<polygon fill="none" stroke="black" points="604.25,-50 604.25,-156.5 822,-156.5 822,-50 604.25,-50"/>
<text text-anchor="start" x="700" y="-139.2" font-family="Times,serif" font-size="14.00">Help</text>
<polyline fill="none" stroke="black" points="604.25,-132 822,-132"/>
<text text-anchor="start" x="612.25" y="-114.7" font-family="Times,serif" font-size="14.00">BINDINGS : ClassVar[list[Binding]]</text>
<text text-anchor="start" x="612.25" y="-98.2" font-family="Times,serif" font-size="14.00">DEFAULT_CSS : ClassVar[str]</text>
<polyline fill="none" stroke="black" points="604.25,-91 822,-91"/>
<text text-anchor="start" x="637.38" y="-73.7" font-family="Times,serif" font-size="14.00">action_close(): None</text>
<text text-anchor="start" x="637.38" y="-57.2" font-family="Times,serif" font-size="14.00">compose(): ComposeResult</text>
</g>
<!-- tui_typer_tutor.core.typing.Keys -->
<g id="node6" class="node">
<title>tui_typer_tutor.core.typing.Keys</title>
<polygon fill="none" stroke="black" points="840.38,-25.25 840.38,-181.25 1013.88,-181.25 1013.88,-25.25 840.38,-25.25"/>
<text text-anchor="start" x="913.25" y="-163.95" font-family="Times,serif" font-size="14.00">Keys</text>
<polyline fill="none" stroke="black" points="840.38,-156.75 1013.88,-156.75"/>
<text text-anchor="start" x="848.38" y="-139.45" font-family="Times,serif" font-size="14.00">expected : list[ExpectedKey]</text>
<text text-anchor="start" x="848.38" y="-122.95" font-family="Times,serif" font-size="14.00">last_was_delete</text>
<text text-anchor="start" x="848.38" y="-106.45" font-family="Times,serif" font-size="14.00">last_was_delete : bool</text>
<text text-anchor="start" x="848.38" y="-89.95" font-family="Times,serif" font-size="14.00">typed</text>
<text text-anchor="start" x="848.38" y="-73.45" font-family="Times,serif" font-size="14.00">typed : list[TypedKey]</text>
<text text-anchor="start" x="848.38" y="-56.95" font-family="Times,serif" font-size="14.00">typed_all : list[TypedKey]</text>
<polyline fill="none" stroke="black" points="840.38,-49.75 1013.88,-49.75"/>
<text text-anchor="start" x="891.12" y="-32.45" font-family="Times,serif" font-size="14.00">store(): None</text>
</g>
<!-- tui_typer_tutor.screens.main.Main -->
<g id="node7" class="node">
<title>tui_typer_tutor.screens.main.Main</title>
<polygon fill="none" stroke="black" points="945.25,-259.5 945.25,-498 1163,-498 1163,-259.5 945.25,-259.5"/>
<text text-anchor="start" x="1039.5" y="-480.7" font-family="Times,serif" font-size="14.00">Main</text>
<polyline fill="none" stroke="black" points="945.25,-473.5 1163,-473.5"/>
<text text-anchor="start" x="953.25" y="-456.2" font-family="Times,serif" font-size="14.00">BINDINGS : ClassVar[list[Binding]]</text>
<text text-anchor="start" x="953.25" y="-439.7" font-family="Times,serif" font-size="14.00">DEFAULT_CSS : ClassVar[str]</text>
<text text-anchor="start" x="953.25" y="-423.2" font-family="Times,serif" font-size="14.00">keys</text>
<text text-anchor="start" x="953.25" y="-406.7" font-family="Times,serif" font-size="14.00">keys</text>
<text text-anchor="start" x="953.25" y="-390.2" font-family="Times,serif" font-size="14.00">metrics</text>
<text text-anchor="start" x="953.25" y="-373.7" font-family="Times,serif" font-size="14.00">metrics</text>
<text text-anchor="start" x="953.25" y="-357.2" font-family="Times,serif" font-size="14.00">width</text>
<text text-anchor="start" x="953.25" y="-340.7" font-family="Times,serif" font-size="14.00">width : int</text>
<polyline fill="none" stroke="black" points="945.25,-333.5 1163,-333.5"/>
<text text-anchor="start" x="972.38" y="-316.2" font-family="Times,serif" font-size="14.00">action_save_and_quit(): None</text>
<text text-anchor="start" x="972.38" y="-299.7" font-family="Times,serif" font-size="14.00">compose(): ComposeResult</text>
<text text-anchor="start" x="972.38" y="-283.2" font-family="Times,serif" font-size="14.00">on_key(event: Key): None</text>
<text text-anchor="start" x="972.38" y="-266.7" font-family="Times,serif" font-size="14.00">on_mount(): None</text>
</g>
<!-- tui_typer_tutor.core.typing.Keys&#45;&gt;tui_typer_tutor.screens.main.Main -->
<g id="edge4" class="edge">
<title>tui_typer_tutor.core.typing.Keys&#45;&gt;tui_typer_tutor.screens.main.Main</title>
<path fill="none" stroke="black" d="M949.95,-180.93C956.7,-200.81 964.66,-221.98 973.38,-241 974.43,-243.3 975.51,-245.62 976.62,-247.94"/>
<polygon fill="black" stroke="black" points="976.66,-248.01 982.9,-251.62 981.96,-258.77 975.72,-255.16 976.66,-248.01"/>
<text text-anchor="middle" x="986.5" y="-227.7" font-family="Times,serif" font-size="14.00" fill="green">keys</text>
</g>
<!-- tui_typer_tutor.core.typing.Keys&#45;&gt;tui_typer_tutor.screens.main.Main -->
<g id="edge5" class="edge">
<title>tui_typer_tutor.core.typing.Keys&#45;&gt;tui_typer_tutor.screens.main.Main</title>
<path fill="none" stroke="black" d="M975.28,-181.07C983.37,-195.26 991.33,-210.15 998.12,-224.5 1001.71,-232.07 1005.21,-239.93 1008.6,-247.93"/>
<polygon fill="black" stroke="black" points="1008.54,-247.79 1014.53,-251.8 1013.14,-258.87 1007.14,-254.86 1008.54,-247.79"/>
<text text-anchor="middle" x="1018.5" y="-227.7" font-family="Times,serif" font-size="14.00" fill="green">keys</text>
</g>
<!-- tui_typer_tutor.core.metrics.SessionMetrics -->
<g id="node8" class="node">
<title>tui_typer_tutor.core.metrics.SessionMetrics</title>
<polygon fill="none" stroke="black" points="1031.62,-0.5 1031.62,-206 1302.62,-206 1302.62,-0.5 1031.62,-0.5"/>
<text text-anchor="start" x="1125.5" y="-188.7" font-family="Times,serif" font-size="14.00">SessionMetrics</text>
<polyline fill="none" stroke="black" points="1031.62,-181.5 1302.62,-181.5"/>
<text text-anchor="start" x="1057.25" y="-164.2" font-family="Times,serif" font-size="14.00">filename : str</text>
<text text-anchor="start" x="1057.25" y="-147.7" font-family="Times,serif" font-size="14.00">session_end : Optional[datetime | None]</text>
<text text-anchor="start" x="1057.25" y="-131.2" font-family="Times,serif" font-size="14.00">session_end : datetime</text>
<text text-anchor="start" x="1057.25" y="-114.7" font-family="Times,serif" font-size="14.00">session_start : datetime</text>
<text text-anchor="start" x="1057.25" y="-98.2" font-family="Times,serif" font-size="14.00">typed_correct</text>
<text text-anchor="start" x="1057.25" y="-81.7" font-family="Times,serif" font-size="14.00">typed_correct : int</text>
<text text-anchor="start" x="1057.25" y="-65.2" font-family="Times,serif" font-size="14.00">typed_incorrect</text>
<text text-anchor="start" x="1057.25" y="-48.7" font-family="Times,serif" font-size="14.00">typed_incorrect : int</text>
<polyline fill="none" stroke="black" points="1031.62,-41.5 1302.62,-41.5"/>
<text text-anchor="start" x="1039.62" y="-24.2" font-family="Times,serif" font-size="14.00">end_session(keys: Keys): &#39;SessionMetrics&#39;</text>
<text text-anchor="start" x="1039.62" y="-7.7" font-family="Times,serif" font-size="14.00">from_filename(filename: str): &#39;SessionMetrics&#39;</text>
</g>
<!-- tui_typer_tutor.core.metrics.SessionMetrics&#45;&gt;tui_typer_tutor.screens.main.Main -->
<g id="edge2" class="edge">
<title>tui_typer_tutor.core.metrics.SessionMetrics&#45;&gt;tui_typer_tutor.screens.main.Main</title>
<path fill="none" stroke="black" d="M1108.08,-205.81C1105.08,-212.06 1102.24,-218.33 1099.62,-224.5 1096.47,-231.97 1093.44,-239.73 1090.55,-247.62"/>
<polygon fill="black" stroke="black" points="1090.59,-247.51 1092.35,-254.5 1086.57,-258.82 1084.81,-251.82 1090.59,-247.51"/>
<text text-anchor="middle" x="1119.38" y="-227.7" font-family="Times,serif" font-size="14.00" fill="green">metrics</text>
</g>
<!-- tui_typer_tutor.core.metrics.SessionMetrics&#45;&gt;tui_typer_tutor.screens.main.Main -->
<g id="edge3" class="edge">
<title>tui_typer_tutor.core.metrics.SessionMetrics&#45;&gt;tui_typer_tutor.screens.main.Main</title>
<path fill="none" stroke="black" d="M1151.4,-205.91C1148.27,-217.93 1144.55,-229.87 1140.12,-241 1139.19,-243.35 1138.22,-245.7 1137.21,-248.05"/>
<polygon fill="black" stroke="black" points="1137.21,-248.05 1138.37,-255.16 1132.25,-258.97 1131.09,-251.86 1137.21,-248.05"/>
<text text-anchor="middle" x="1165.38" y="-227.7" font-family="Times,serif" font-size="14.00" fill="green">metrics</text>
</g>
<!-- tui_typer_tutor.app.ttt.TuiTyperTutor -->
<g id="node9" class="node">
<title>tui_typer_tutor.app.ttt.TuiTyperTutor</title>
<polygon fill="none" stroke="black" points="1320.25,-50 1320.25,-156.5 1538,-156.5 1538,-50 1320.25,-50"/>
<text text-anchor="start" x="1388.62" y="-139.2" font-family="Times,serif" font-size="14.00">TuiTyperTutor</text>
<polyline fill="none" stroke="black" points="1320.25,-132 1538,-132"/>
<text text-anchor="start" x="1328.25" y="-114.7" font-family="Times,serif" font-size="14.00">BINDINGS : ClassVar[list[Binding]]</text>
<text text-anchor="start" x="1328.25" y="-98.2" font-family="Times,serif" font-size="14.00">TITLE : str</text>
<polyline fill="none" stroke="black" points="1320.25,-91 1538,-91"/>
<text text-anchor="start" x="1357.12" y="-73.7" font-family="Times,serif" font-size="14.00">action_show_help(): None</text>
<text text-anchor="start" x="1357.12" y="-57.2" font-family="Times,serif" font-size="14.00">on_mount(): None</text>
</g>
<!-- tui_typer_tutor.core.typing.TypedKey -->
<g id="node10" class="node">
<title>tui_typer_tutor.core.typing.TypedKey</title>
<polygon fill="none" stroke="black" points="398.25,-58.25 398.25,-148.25 586,-148.25 586,-58.25 398.25,-58.25"/>
<text text-anchor="start" x="463.62" y="-130.95" font-family="Times,serif" font-size="14.00">TypedKey</text>
<polyline fill="none" stroke="black" points="398.25,-123.75 586,-123.75"/>
<text text-anchor="start" x="406.25" y="-106.45" font-family="Times,serif" font-size="14.00">expected : ExpectedKey | None</text>
<text text-anchor="start" x="406.25" y="-89.95" font-family="Times,serif" font-size="14.00">was_correct</text>
<polyline fill="none" stroke="black" points="398.25,-82.75 586,-82.75"/>
<text text-anchor="start" x="490.25" y="-65.45" font-family="Times,serif" font-size="14.00"> </text>
</g>
<!-- tui_typer_tutor.core.typing.TypedKey&#45;&gt;tui_typer_tutor.core.typing.ExpectedKey -->
<g id="edge1" class="edge">
<title>tui_typer_tutor.core.typing.TypedKey&#45;&gt;tui_typer_tutor.core.typing.ExpectedKey</title>
<path fill="none" stroke="black" d="M492.12,-148.19C492.12,-195.74 492.12,-271.64 492.12,-323.02"/>
<polygon fill="none" stroke="black" points="488.63,-322.92 492.12,-332.92 495.63,-322.92 488.63,-322.92"/>
</g>
</g>
</svg>
