<?xml version="1.0" encoding="UTF-8" standalone="no"?>
<!DOCTYPE svg PUBLIC "-//W3C//DTD SVG 1.1//EN"
 "http://www.w3.org/Graphics/SVG/1.1/DTD/svg11.dtd">
<!-- Generated by graphviz version 2.43.0 (0)
 -->
<!-- Title: classes Pages: 1 -->
<svg width="2152pt" height="379pt"
 viewBox="0.00 0.00 2151.50 379.00" xmlns="http://www.w3.org/2000/svg" xmlns:xlink="http://www.w3.org/1999/xlink">
<g id="graph0" class="graph" transform="scale(1 1) rotate(0) translate(4 375)">
<title>classes</title>
<polygon fill="white" stroke="transparent" points="-4,4 -4,-375 2147.5,-375 2147.5,4 -4,4"/>
<!-- tui_typer_tutor.core.typing.AtEndOfExpectedError -->
<g id="node1" class="node">
<title>tui_typer_tutor.core.typing.AtEndOfExpectedError</title>
<polygon fill="none" stroke="black" points="0,-37.1 0,-107.9 183,-107.9 183,-37.1 0,-37.1"/>
<text text-anchor="start" x="8" y="-92.7" font-family="Times,serif" font-size="14.00" fill="red">AtEndOfExpectedError</text>
<polyline fill="none" stroke="black" points="0,-84.9 183,-84.9 "/>
<polyline fill="none" stroke="black" points="0,-60.1 183,-60.1 "/>
<text text-anchor="start" x="89" y="-44.9" font-family="Times,serif" font-size="14.00" fill="red"> </text>
</g>
<!-- tui_typer_tutor.core.config.Config -->
<g id="node2" class="node">
<title>tui_typer_tutor.core.config.Config</title>
<polygon fill="none" stroke="black" points="201.5,-30.5 201.5,-114.5 459.5,-114.5 459.5,-30.5 201.5,-30.5"/>
<text text-anchor="start" x="307.5" y="-99.3" font-family="Times,serif" font-size="14.00">Config</text>
<polyline fill="none" stroke="black" points="201.5,-91.5 459.5,-91.5 "/>
<text text-anchor="start" x="209.5" y="-76.3" font-family="Times,serif" font-size="14.00">model_config : SettingsConfigDict</text>
<text text-anchor="start" x="209.5" y="-61.3" font-family="Times,serif" font-size="14.00">seed_file : Path</text>
<polyline fill="none" stroke="black" points="201.5,-53.5 459.5,-53.5 "/>
<text text-anchor="start" x="328" y="-38.3" font-family="Times,serif" font-size="14.00"> </text>
</g>
<!-- tui_typer_tutor.core.typing.ExpectedKey -->
<g id="node3" class="node">
<title>tui_typer_tutor.core.typing.ExpectedKey</title>
<polygon fill="none" stroke="black" points="542.5,-241.5 542.5,-325.5 652.5,-325.5 652.5,-241.5 542.5,-241.5"/>
<text text-anchor="start" x="550.5" y="-310.3" font-family="Times,serif" font-size="14.00">ExpectedKey</text>
<polyline fill="none" stroke="black" points="542.5,-302.5 652.5,-302.5 "/>
<text text-anchor="start" x="555" y="-287.3" font-family="Times,serif" font-size="14.00">text</text>
<text text-anchor="start" x="555" y="-272.3" font-family="Times,serif" font-size="14.00">textual : str</text>
<polyline fill="none" stroke="black" points="542.5,-264.5 652.5,-264.5 "/>
<text text-anchor="start" x="595" y="-249.3" font-family="Times,serif" font-size="14.00"> </text>
</g>
<!-- tui_typer_tutor.screens.help.Help -->
<g id="node4" class="node">
<title>tui_typer_tutor.screens.help.Help</title>
<polygon fill="none" stroke="black" points="735,-23 735,-122 1004,-122 1004,-23 735,-23"/>
<text text-anchor="start" x="852.5" y="-106.8" font-family="Times,serif" font-size="14.00">Help</text>
<polyline fill="none" stroke="black" points="735,-99 1004,-99 "/>
<text text-anchor="start" x="743" y="-83.8" font-family="Times,serif" font-size="14.00">BINDINGS : ClassVar[list[Binding]]</text>
<text text-anchor="start" x="743" y="-68.8" font-family="Times,serif" font-size="14.00">DEFAULT_CSS : ClassVar[str]</text>
<polyline fill="none" stroke="black" points="735,-61 1004,-61 "/>
<text text-anchor="start" x="773" y="-45.8" font-family="Times,serif" font-size="14.00">action_close(): None</text>
<text text-anchor="start" x="773" y="-30.8" font-family="Times,serif" font-size="14.00">compose(): ComposeResult</text>
</g>
<!-- tui_typer_tutor.core.typing.Keys -->
<g id="node5" class="node">
<title>tui_typer_tutor.core.typing.Keys</title>
<polygon fill="none" stroke="black" points="1022,-15.5 1022,-129.5 1243,-129.5 1243,-15.5 1022,-15.5"/>
<text text-anchor="start" x="1115.5" y="-114.3" font-family="Times,serif" font-size="14.00">Keys</text>
<polyline fill="none" stroke="black" points="1022,-106.5 1243,-106.5 "/>
<text text-anchor="start" x="1030" y="-91.3" font-family="Times,serif" font-size="14.00">expected : list[ExpectedKey]</text>
<text text-anchor="start" x="1030" y="-76.3" font-family="Times,serif" font-size="14.00">last_was_delete : bool</text>
<text text-anchor="start" x="1030" y="-61.3" font-family="Times,serif" font-size="14.00">typed : list[TypedKey]</text>
<text text-anchor="start" x="1030" y="-46.3" font-family="Times,serif" font-size="14.00">typed_all : list[TypedKey]</text>
<polyline fill="none" stroke="black" points="1022,-38.5 1243,-38.5 "/>
<text text-anchor="start" x="1085.5" y="-23.3" font-family="Times,serif" font-size="14.00">store(): None</text>
</g>
<!-- tui_typer_tutor.screens.main.Main -->
<g id="node6" class="node">
<title>tui_typer_tutor.screens.main.Main</title>
<polygon fill="none" stroke="black" points="1149,-196.5 1149,-370.5 1418,-370.5 1418,-196.5 1149,-196.5"/>
<text text-anchor="start" x="1265" y="-355.3" font-family="Times,serif" font-size="14.00">Main</text>
<polyline fill="none" stroke="black" points="1149,-347.5 1418,-347.5 "/>
<text text-anchor="start" x="1157" y="-332.3" font-family="Times,serif" font-size="14.00">BINDINGS : ClassVar[list[Binding]]</text>
<text text-anchor="start" x="1157" y="-317.3" font-family="Times,serif" font-size="14.00">DEFAULT_CSS : ClassVar[str]</text>
<text text-anchor="start" x="1157" y="-302.3" font-family="Times,serif" font-size="14.00">keys</text>
<text text-anchor="start" x="1157" y="-287.3" font-family="Times,serif" font-size="14.00">metrics</text>
<text text-anchor="start" x="1157" y="-272.3" font-family="Times,serif" font-size="14.00">width : int</text>
<polyline fill="none" stroke="black" points="1149,-264.5 1418,-264.5 "/>
<text text-anchor="start" x="1179.5" y="-249.3" font-family="Times,serif" font-size="14.00">action_save_and_quit(): None</text>
<text text-anchor="start" x="1179.5" y="-234.3" font-family="Times,serif" font-size="14.00">compose(): ComposeResult</text>
<text text-anchor="start" x="1179.5" y="-219.3" font-family="Times,serif" font-size="14.00">on_key(event: Key): None</text>
<text text-anchor="start" x="1179.5" y="-204.3" font-family="Times,serif" font-size="14.00">on_mount(): None</text>
</g>
<!-- tui_typer_tutor.core.typing.Keys&#45;&gt;tui_typer_tutor.screens.main.Main -->
<g id="edge3" class="edge">
<title>tui_typer_tutor.core.typing.Keys&#45;&gt;tui_typer_tutor.screens.main.Main</title>
<path fill="none" stroke="black" d="M1172.97,-129.51C1185.67,-147.09 1200.08,-167.03 1214.19,-186.57"/>
<polygon fill="black" stroke="black" points="1214.28,-186.69 1221.04,-189.22 1221.31,-196.42 1214.55,-193.9 1214.28,-186.69"/>
<text text-anchor="middle" x="1225" y="-166.8" font-family="Times,serif" font-size="14.00" fill="green">keys</text>
</g>
<!-- tui_typer_tutor.core.metrics.SessionMetrics -->
<g id="node7" class="node">
<title>tui_typer_tutor.core.metrics.SessionMetrics</title>
<polygon fill="none" stroke="black" points="1261.5,-0.5 1261.5,-144.5 1605.5,-144.5 1605.5,-0.5 1261.5,-0.5"/>
<text text-anchor="start" x="1378.5" y="-129.3" font-family="Times,serif" font-size="14.00">SessionMetrics</text>
<polyline fill="none" stroke="black" points="1261.5,-121.5 1605.5,-121.5 "/>
<text text-anchor="start" x="1326.5" y="-106.3" font-family="Times,serif" font-size="14.00">filename : str</text>
<text text-anchor="start" x="1326.5" y="-91.3" font-family="Times,serif" font-size="14.00">session_end : datetime | None</text>
<text text-anchor="start" x="1326.5" y="-76.3" font-family="Times,serif" font-size="14.00">session_start : datetime</text>
<text text-anchor="start" x="1326.5" y="-61.3" font-family="Times,serif" font-size="14.00">typed_correct : int</text>
<text text-anchor="start" x="1326.5" y="-46.3" font-family="Times,serif" font-size="14.00">typed_incorrect : int</text>
<polyline fill="none" stroke="black" points="1261.5,-38.5 1605.5,-38.5 "/>
<text text-anchor="start" x="1269.5" y="-23.3" font-family="Times,serif" font-size="14.00">end_session(keys: Keys): &#39;SessionMetrics&#39;</text>
<text text-anchor="start" x="1269.5" y="-8.3" font-family="Times,serif" font-size="14.00">from_filename(filename: str): &#39;SessionMetrics&#39;</text>
</g>
<!-- tui_typer_tutor.core.metrics.SessionMetrics&#45;&gt;tui_typer_tutor.screens.main.Main -->
<g id="edge2" class="edge">
<title>tui_typer_tutor.core.metrics.SessionMetrics&#45;&gt;tui_typer_tutor.screens.main.Main</title>
<path fill="none" stroke="black" d="M1382.51,-144.55C1372.78,-158.11 1362.44,-172.5 1352.27,-186.69"/>
<polygon fill="black" stroke="black" points="1352.25,-186.71 1352,-193.91 1345.25,-196.46 1345.5,-189.25 1352.25,-186.71"/>
<text text-anchor="middle" x="1395" y="-166.8" font-family="Times,serif" font-size="14.00" fill="green">metrics</text>
</g>
<!-- tui_typer_tutor.app.ttt.TuiTyperTutor -->
<g id="node8" class="node">
<title>tui_typer_tutor.app.ttt.TuiTyperTutor</title>
<polygon fill="none" stroke="black" points="1624,-23 1624,-122 1893,-122 1893,-23 1624,-23"/>
<text text-anchor="start" x="1707" y="-106.8" font-family="Times,serif" font-size="14.00">TuiTyperTutor</text>
<polyline fill="none" stroke="black" points="1624,-99 1893,-99 "/>
<text text-anchor="start" x="1632" y="-83.8" font-family="Times,serif" font-size="14.00">BINDINGS : ClassVar[list[Binding]]</text>
<text text-anchor="start" x="1632" y="-68.8" font-family="Times,serif" font-size="14.00">TITLE : str</text>
<polyline fill="none" stroke="black" points="1624,-61 1893,-61 "/>
<text text-anchor="start" x="1667.5" y="-45.8" font-family="Times,serif" font-size="14.00">action_show_help(): None</text>
<text text-anchor="start" x="1667.5" y="-30.8" font-family="Times,serif" font-size="14.00">on_mount(): None</text>
</g>
<!-- tui_typer_tutor.core.typing.TypedKey -->
<g id="node9" class="node">
<title>tui_typer_tutor.core.typing.TypedKey</title>
<polygon fill="none" stroke="black" points="478,-30.5 478,-114.5 717,-114.5 717,-30.5 478,-30.5"/>
<text text-anchor="start" x="562.5" y="-99.3" font-family="Times,serif" font-size="14.00">TypedKey</text>
<polyline fill="none" stroke="black" points="478,-91.5 717,-91.5 "/>
<text text-anchor="start" x="486" y="-76.3" font-family="Times,serif" font-size="14.00">expected : ExpectedKey | None</text>
<text text-anchor="start" x="486" y="-61.3" font-family="Times,serif" font-size="14.00">was_correct</text>
<polyline fill="none" stroke="black" points="478,-53.5 717,-53.5 "/>
<text text-anchor="start" x="595" y="-38.3" font-family="Times,serif" font-size="14.00"> </text>
</g>
<!-- tui_typer_tutor.core.typing.TypedKey&#45;&gt;tui_typer_tutor.core.typing.ExpectedKey -->
<g id="edge1" class="edge">
<title>tui_typer_tutor.core.typing.TypedKey&#45;&gt;tui_typer_tutor.core.typing.ExpectedKey</title>
<path fill="none" stroke="black" d="M597.5,-114.79C597.5,-148.14 597.5,-195.25 597.5,-231.05"/>
<polygon fill="none" stroke="black" points="594,-231.29 597.5,-241.29 601,-231.29 594,-231.29"/>
</g>
<!-- tui_typer_tutor._RuntimeTypeCheckingModes -->
<g id="node10" class="node">
<title>tui_typer_tutor._RuntimeTypeCheckingModes</title>
<polygon fill="none" stroke="black" points="1911.5,-38 1911.5,-107 2143.5,-107 2143.5,-38 1911.5,-38"/>
<text text-anchor="start" x="1919.5" y="-91.8" font-family="Times,serif" font-size="14.00">_RuntimeTypeCheckingModes</text>
<polyline fill="none" stroke="black" points="1911.5,-84 2143.5,-84 "/>
<text text-anchor="start" x="2007.5" y="-68.8" font-family="Times,serif" font-size="14.00">name</text>
<polyline fill="none" stroke="black" points="1911.5,-61 2143.5,-61 "/>
<text text-anchor="start" x="1938" y="-45.8" font-family="Times,serif" font-size="14.00">from_environment(): Self</text>
</g>
</g>
</svg>
