<?xml version="1.0" encoding="UTF-8" standalone="no"?>
<!DOCTYPE svg PUBLIC "-//W3C//DTD SVG 1.1//EN"
 "http://www.w3.org/Graphics/SVG/1.1/DTD/svg11.dtd">
<!-- Generated by graphviz version 8.1.0 (20230707.0739)
 -->
<!-- Title: classes Pages: 1 -->
<svg width="1659pt" height="507pt"
 viewBox="0.00 0.00 1658.62 506.50" xmlns="http://www.w3.org/2000/svg" xmlns:xlink="http://www.w3.org/1999/xlink">
<g id="graph0" class="graph" transform="scale(1 1) rotate(0) translate(4 502.5)">
<title>classes</title>
<polygon fill="white" stroke="none" points="-4,4 -4,-502.5 1654.62,-502.5 1654.62,4 -4,4"/>
<!-- tui_typer_tutor.core.typing.AtEndOfExpectedError -->
<g id="node1" class="node">
<title>tui_typer_tutor.core.typing.AtEndOfExpectedError</title>
<polygon fill="none" stroke="black" points="0,-78.75 0,-127.75 144.25,-127.75 144.25,-78.75 0,-78.75"/>
<text text-anchor="start" x="8" y="-110.45" font-family="Times,serif" font-size="14.00" fill="red">AtEndOfExpectedError</text>
<polyline fill="none" stroke="black" points="0,-103.25 144.25,-103.25"/>
<polyline fill="none" stroke="black" points="0,-103.25 144.25,-103.25"/>
<text text-anchor="start" x="70.25" y="-85.95" font-family="Times,serif" font-size="14.00" fill="red"> </text>
</g>
<!-- tui_typer_tutor.core.config.Config -->
<g id="node2" class="node">
<title>tui_typer_tutor.core.config.Config</title>
<polygon fill="none" stroke="black" points="162.12,-50 162.12,-156.5 262.12,-156.5 262.12,-50 162.12,-50"/>
<text text-anchor="start" x="193.38" y="-139.2" font-family="Times,serif" font-size="14.00">Config</text>
<polyline fill="none" stroke="black" points="162.12,-132 262.12,-132"/>
<text text-anchor="start" x="170.12" y="-114.7" font-family="Times,serif" font-size="14.00">model_config</text>
<text text-anchor="start" x="170.12" y="-98.2" font-family="Times,serif" font-size="14.00">seed_file : Path</text>
<text text-anchor="start" x="170.12" y="-81.7" font-family="Times,serif" font-size="14.00">seed_file : Path</text>
<polyline fill="none" stroke="black" points="162.12,-74.5 262.12,-74.5"/>
<text text-anchor="start" x="210.25" y="-57.2" font-family="Times,serif" font-size="14.00"> </text>
</g>
<!-- tui_typer_tutor.core.typing.ExpectedKey -->
<g id="node3" class="node">
<title>tui_typer_tutor.core.typing.ExpectedKey</title>
<polygon fill="none" stroke="black" points="357.75,-333.75 357.75,-423.75 446.5,-423.75 446.5,-333.75 357.75,-333.75"/>
<text text-anchor="start" x="365.75" y="-406.45" font-family="Times,serif" font-size="14.00">ExpectedKey</text>
<polyline fill="none" stroke="black" points="357.75,-399.25 446.5,-399.25"/>
<text text-anchor="start" x="371.38" y="-381.95" font-family="Times,serif" font-size="14.00">text</text>
<text text-anchor="start" x="371.38" y="-365.45" font-family="Times,serif" font-size="14.00">textual : str</text>
<polyline fill="none" stroke="black" points="357.75,-358.25 446.5,-358.25"/>
<text text-anchor="start" x="400.25" y="-340.95" font-family="Times,serif" font-size="14.00"> </text>
</g>
<!-- tui_typer_tutor.screens.help.Help -->
<g id="node4" class="node">
<title>tui_typer_tutor.screens.help.Help</title>
<polygon fill="none" stroke="black" points="542.25,-50 542.25,-156.5 760,-156.5 760,-50 542.25,-50"/>
<text text-anchor="start" x="638" y="-139.2" font-family="Times,serif" font-size="14.00">Help</text>
<polyline fill="none" stroke="black" points="542.25,-132 760,-132"/>
<text text-anchor="start" x="550.25" y="-114.7" font-family="Times,serif" font-size="14.00">BINDINGS : ClassVar[list[Binding]]</text>
<text text-anchor="start" x="550.25" y="-98.2" font-family="Times,serif" font-size="14.00">DEFAULT_CSS : ClassVar[str]</text>
<polyline fill="none" stroke="black" points="542.25,-91 760,-91"/>
<text text-anchor="start" x="575.38" y="-73.7" font-family="Times,serif" font-size="14.00">action_close(): None</text>
<text text-anchor="start" x="575.38" y="-57.2" font-family="Times,serif" font-size="14.00">compose(): ComposeResult</text>
</g>
<!-- tui_typer_tutor.core.typing.Keys -->
<g id="node5" class="node">
<title>tui_typer_tutor.core.typing.Keys</title>
<polygon fill="none" stroke="black" points="778.38,-25.25 778.38,-181.25 951.88,-181.25 951.88,-25.25 778.38,-25.25"/>
<text text-anchor="start" x="851.25" y="-163.95" font-family="Times,serif" font-size="14.00">Keys</text>
<polyline fill="none" stroke="black" points="778.38,-156.75 951.88,-156.75"/>
<text text-anchor="start" x="786.38" y="-139.45" font-family="Times,serif" font-size="14.00">expected : list[ExpectedKey]</text>
<text text-anchor="start" x="786.38" y="-122.95" font-family="Times,serif" font-size="14.00">last_was_delete</text>
<text text-anchor="start" x="786.38" y="-106.45" font-family="Times,serif" font-size="14.00">last_was_delete : bool</text>
<text text-anchor="start" x="786.38" y="-89.95" font-family="Times,serif" font-size="14.00">typed</text>
<text text-anchor="start" x="786.38" y="-73.45" font-family="Times,serif" font-size="14.00">typed : list[TypedKey]</text>
<text text-anchor="start" x="786.38" y="-56.95" font-family="Times,serif" font-size="14.00">typed_all : list[TypedKey]</text>
<polyline fill="none" stroke="black" points="778.38,-49.75 951.88,-49.75"/>
<text text-anchor="start" x="829.12" y="-32.45" font-family="Times,serif" font-size="14.00">store(): None</text>
</g>
<!-- tui_typer_tutor.screens.main.Main -->
<g id="node6" class="node">
<title>tui_typer_tutor.screens.main.Main</title>
<polygon fill="none" stroke="black" points="883.25,-259.5 883.25,-498 1101,-498 1101,-259.5 883.25,-259.5"/>
<text text-anchor="start" x="977.5" y="-480.7" font-family="Times,serif" font-size="14.00">Main</text>
<polyline fill="none" stroke="black" points="883.25,-473.5 1101,-473.5"/>
<text text-anchor="start" x="891.25" y="-456.2" font-family="Times,serif" font-size="14.00">BINDINGS : ClassVar[list[Binding]]</text>
<text text-anchor="start" x="891.25" y="-439.7" font-family="Times,serif" font-size="14.00">DEFAULT_CSS : ClassVar[str]</text>
<text text-anchor="start" x="891.25" y="-423.2" font-family="Times,serif" font-size="14.00">keys</text>
<text text-anchor="start" x="891.25" y="-406.7" font-family="Times,serif" font-size="14.00">keys</text>
<text text-anchor="start" x="891.25" y="-390.2" font-family="Times,serif" font-size="14.00">metrics</text>
<text text-anchor="start" x="891.25" y="-373.7" font-family="Times,serif" font-size="14.00">metrics</text>
<text text-anchor="start" x="891.25" y="-357.2" font-family="Times,serif" font-size="14.00">width</text>
<text text-anchor="start" x="891.25" y="-340.7" font-family="Times,serif" font-size="14.00">width : int</text>
<polyline fill="none" stroke="black" points="883.25,-333.5 1101,-333.5"/>
<text text-anchor="start" x="910.38" y="-316.2" font-family="Times,serif" font-size="14.00">action_save_and_quit(): None</text>
<text text-anchor="start" x="910.38" y="-299.7" font-family="Times,serif" font-size="14.00">compose(): ComposeResult</text>
<text text-anchor="start" x="910.38" y="-283.2" font-family="Times,serif" font-size="14.00">on_key(event: Key): None</text>
<text text-anchor="start" x="910.38" y="-266.7" font-family="Times,serif" font-size="14.00">on_mount(): None</text>
</g>
<!-- tui_typer_tutor.core.typing.Keys&#45;&gt;tui_typer_tutor.screens.main.Main -->
<g id="edge4" class="edge">
<title>tui_typer_tutor.core.typing.Keys&#45;&gt;tui_typer_tutor.screens.main.Main</title>
<path fill="none" stroke="black" d="M887.95,-180.93C894.7,-200.81 902.66,-221.98 911.38,-241 912.43,-243.3 913.51,-245.62 914.62,-247.94"/>
<polygon fill="black" stroke="black" points="914.66,-248.01 920.9,-251.62 919.96,-258.77 913.72,-255.16 914.66,-248.01"/>
<text text-anchor="middle" x="924.5" y="-227.7" font-family="Times,serif" font-size="14.00" fill="green">keys</text>
</g>
<!-- tui_typer_tutor.core.typing.Keys&#45;&gt;tui_typer_tutor.screens.main.Main -->
<g id="edge5" class="edge">
<title>tui_typer_tutor.core.typing.Keys&#45;&gt;tui_typer_tutor.screens.main.Main</title>
<path fill="none" stroke="black" d="M913.28,-181.07C921.37,-195.26 929.33,-210.15 936.12,-224.5 939.71,-232.07 943.21,-239.93 946.6,-247.93"/>
<polygon fill="black" stroke="black" points="946.54,-247.79 952.53,-251.8 951.14,-258.87 945.14,-254.86 946.54,-247.79"/>
<text text-anchor="middle" x="956.5" y="-227.7" font-family="Times,serif" font-size="14.00" fill="green">keys</text>
</g>
<!-- tui_typer_tutor.core.metrics.SessionMetrics -->
<g id="node7" class="node">
<title>tui_typer_tutor.core.metrics.SessionMetrics</title>
<polygon fill="none" stroke="black" points="969.62,-0.5 969.62,-206 1240.62,-206 1240.62,-0.5 969.62,-0.5"/>
<text text-anchor="start" x="1063.5" y="-188.7" font-family="Times,serif" font-size="14.00">SessionMetrics</text>
<polyline fill="none" stroke="black" points="969.62,-181.5 1240.62,-181.5"/>
<text text-anchor="start" x="995.25" y="-164.2" font-family="Times,serif" font-size="14.00">filename : str</text>
<text text-anchor="start" x="995.25" y="-147.7" font-family="Times,serif" font-size="14.00">session_end : Optional[datetime | None]</text>
<text text-anchor="start" x="995.25" y="-131.2" font-family="Times,serif" font-size="14.00">session_end : datetime</text>
<text text-anchor="start" x="995.25" y="-114.7" font-family="Times,serif" font-size="14.00">session_start : datetime</text>
<text text-anchor="start" x="995.25" y="-98.2" font-family="Times,serif" font-size="14.00">typed_correct</text>
<text text-anchor="start" x="995.25" y="-81.7" font-family="Times,serif" font-size="14.00">typed_correct : int</text>
<text text-anchor="start" x="995.25" y="-65.2" font-family="Times,serif" font-size="14.00">typed_incorrect</text>
<text text-anchor="start" x="995.25" y="-48.7" font-family="Times,serif" font-size="14.00">typed_incorrect : int</text>
<polyline fill="none" stroke="black" points="969.62,-41.5 1240.62,-41.5"/>
<text text-anchor="start" x="977.62" y="-24.2" font-family="Times,serif" font-size="14.00">end_session(keys: Keys): &#39;SessionMetrics&#39;</text>
<text text-anchor="start" x="977.62" y="-7.7" font-family="Times,serif" font-size="14.00">from_filename(filename: str): &#39;SessionMetrics&#39;</text>
</g>
<!-- tui_typer_tutor.core.metrics.SessionMetrics&#45;&gt;tui_typer_tutor.screens.main.Main -->
<g id="edge2" class="edge">
<title>tui_typer_tutor.core.metrics.SessionMetrics&#45;&gt;tui_typer_tutor.screens.main.Main</title>
<path fill="none" stroke="black" d="M1046.08,-205.81C1043.08,-212.06 1040.24,-218.33 1037.62,-224.5 1034.47,-231.97 1031.44,-239.73 1028.55,-247.62"/>
<polygon fill="black" stroke="black" points="1028.59,-247.51 1030.35,-254.5 1024.57,-258.82 1022.81,-251.82 1028.59,-247.51"/>
<text text-anchor="middle" x="1057.38" y="-227.7" font-family="Times,serif" font-size="14.00" fill="green">metrics</text>
</g>
<!-- tui_typer_tutor.core.metrics.SessionMetrics&#45;&gt;tui_typer_tutor.screens.main.Main -->
<g id="edge3" class="edge">
<title>tui_typer_tutor.core.metrics.SessionMetrics&#45;&gt;tui_typer_tutor.screens.main.Main</title>
<path fill="none" stroke="black" d="M1089.4,-205.91C1086.27,-217.93 1082.55,-229.87 1078.12,-241 1077.19,-243.35 1076.22,-245.7 1075.21,-248.05"/>
<polygon fill="black" stroke="black" points="1075.21,-248.05 1076.37,-255.16 1070.25,-258.97 1069.09,-251.86 1075.21,-248.05"/>
<text text-anchor="middle" x="1103.38" y="-227.7" font-family="Times,serif" font-size="14.00" fill="green">metrics</text>
</g>
<!-- tui_typer_tutor.app.ttt.TuiTyperTutor -->
<g id="node8" class="node">
<title>tui_typer_tutor.app.ttt.TuiTyperTutor</title>
<polygon fill="none" stroke="black" points="1258.25,-50 1258.25,-156.5 1476,-156.5 1476,-50 1258.25,-50"/>
<text text-anchor="start" x="1326.62" y="-139.2" font-family="Times,serif" font-size="14.00">TuiTyperTutor</text>
<polyline fill="none" stroke="black" points="1258.25,-132 1476,-132"/>
<text text-anchor="start" x="1266.25" y="-114.7" font-family="Times,serif" font-size="14.00">BINDINGS : ClassVar[list[Binding]]</text>
<text text-anchor="start" x="1266.25" y="-98.2" font-family="Times,serif" font-size="14.00">TITLE : str</text>
<polyline fill="none" stroke="black" points="1258.25,-91 1476,-91"/>
<text text-anchor="start" x="1295.12" y="-73.7" font-family="Times,serif" font-size="14.00">action_show_help(): None</text>
<text text-anchor="start" x="1295.12" y="-57.2" font-family="Times,serif" font-size="14.00">on_mount(): None</text>
</g>
<!-- tui_typer_tutor.core.typing.TypedKey -->
<g id="node9" class="node">
<title>tui_typer_tutor.core.typing.TypedKey</title>
<polygon fill="none" stroke="black" points="280.12,-58.25 280.12,-148.25 524.12,-148.25 524.12,-58.25 280.12,-58.25"/>
<text text-anchor="start" x="373.62" y="-130.95" font-family="Times,serif" font-size="14.00">TypedKey</text>
<polyline fill="none" stroke="black" points="280.12,-123.75 524.12,-123.75"/>
<text text-anchor="start" x="288.12" y="-106.45" font-family="Times,serif" font-size="14.00">expected : Optional[ExpectedKey | None]</text>
<text text-anchor="start" x="288.12" y="-89.95" font-family="Times,serif" font-size="14.00">was_correct</text>
<polyline fill="none" stroke="black" points="280.12,-82.75 524.12,-82.75"/>
<text text-anchor="start" x="400.25" y="-65.45" font-family="Times,serif" font-size="14.00"> </text>
</g>
<!-- tui_typer_tutor.core.typing.TypedKey&#45;&gt;tui_typer_tutor.core.typing.ExpectedKey -->
<g id="edge1" class="edge">
<title>tui_typer_tutor.core.typing.TypedKey&#45;&gt;tui_typer_tutor.core.typing.ExpectedKey</title>
<path fill="none" stroke="black" d="M402.12,-148.19C402.12,-195.74 402.12,-271.64 402.12,-323.02"/>
<polygon fill="none" stroke="black" points="398.63,-322.92 402.12,-332.92 405.63,-322.92 398.63,-322.92"/>
</g>
<!-- tui_typer_tutor._BeartypeModes -->
<g id="node10" class="node">
<title>tui_typer_tutor._BeartypeModes</title>
<polygon fill="none" stroke="black" points="1493.62,-66.5 1493.62,-140 1650.62,-140 1650.62,-66.5 1493.62,-66.5"/>
<text text-anchor="start" x="1525.62" y="-122.7" font-family="Times,serif" font-size="14.00">_BeartypeModes</text>
<polyline fill="none" stroke="black" points="1493.62,-115.5 1650.62,-115.5"/>
<text text-anchor="start" x="1557.12" y="-98.2" font-family="Times,serif" font-size="14.00">name</text>
<polyline fill="none" stroke="black" points="1493.62,-91 1650.62,-91"/>
<text text-anchor="start" x="1501.62" y="-73.7" font-family="Times,serif" font-size="14.00">from_environment(): Self</text>
</g>
</g>
</svg>
