<?xml version="1.0" encoding="UTF-8" standalone="no"?>
<!DOCTYPE svg PUBLIC "-//W3C//DTD SVG 1.1//EN"
 "http://www.w3.org/Graphics/SVG/1.1/DTD/svg11.dtd">
<!-- Generated by graphviz version 8.1.0 (20230707.0739)
 -->
<!-- Title: packages Pages: 1 -->
<svg width="1903pt" height="116pt"
 viewBox="0.00 0.00 1903.12 116.00" xmlns="http://www.w3.org/2000/svg" xmlns:xlink="http://www.w3.org/1999/xlink">
<g id="graph0" class="graph" transform="scale(1 1) rotate(0) translate(4 112)">
<title>packages</title>
<polygon fill="white" stroke="none" points="-4,4 -4,-112 1899.12,-112 1899.12,4 -4,4"/>
<!-- tui_typer_tutor -->
<g id="node1" class="node">
<title>tui_typer_tutor</title>
<polygon fill="none" stroke="black" points="97,-36 0,-36 0,0 97,0 97,-36"/>
<text text-anchor="middle" x="48.5" y="-12.95" font-family="Times,serif" font-size="14.00">tui_typer_tutor</text>
</g>
<!-- tui_typer_tutor.app -->
<g id="node2" class="node">
<title>tui_typer_tutor.app</title>
<polygon fill="none" stroke="black" points="234.25,-36 114.75,-36 114.75,0 234.25,0 234.25,-36"/>
<text text-anchor="middle" x="174.5" y="-12.95" font-family="Times,serif" font-size="14.00">tui_typer_tutor.app</text>
</g>
<!-- tui_typer_tutor.app.ttt -->
<g id="node3" class="node">
<title>tui_typer_tutor.app.ttt</title>
<polygon fill="none" stroke="black" points="220.75,-108 86.25,-108 86.25,-72 220.75,-72 220.75,-108"/>
<text text-anchor="middle" x="153.5" y="-84.95" font-family="Times,serif" font-size="14.00">tui_typer_tutor.app.ttt</text>
</g>
<!-- tui_typer_tutor.constants -->
<g id="node4" class="node">
<title>tui_typer_tutor.constants</title>
<polygon fill="none" stroke="black" points="995.62,-36 845.38,-36 845.38,0 995.62,0 995.62,-36"/>
<text text-anchor="middle" x="920.5" y="-12.95" font-family="Times,serif" font-size="14.00">tui_typer_tutor.constants</text>
</g>
<!-- tui_typer_tutor.constants.display_to_textual -->
<g id="node5" class="node">
<title>tui_typer_tutor.constants.display_to_textual</title>
<polygon fill="none" stroke="black" points="1047.38,-108 793.62,-108 793.62,-72 1047.38,-72 1047.38,-108"/>
<text text-anchor="middle" x="920.5" y="-84.95" font-family="Times,serif" font-size="14.00">tui_typer_tutor.constants.display_to_textual</text>
</g>
<!-- tui_typer_tutor.constants&#45;&gt;tui_typer_tutor.constants.display_to_textual -->
<g id="edge1" class="edge">
<title>tui_typer_tutor.constants&#45;&gt;tui_typer_tutor.constants.display_to_textual</title>
<path fill="none" stroke="black" d="M920.5,-36.3C920.5,-44.1 920.5,-53.49 920.5,-62.17"/>
<polygon fill="black" stroke="black" points="920.5,-71.9 916,-61.9 920.5,-66.9 920.5,-61.9 920.5,-61.9 920.5,-61.9 920.5,-66.9 925,-61.9 920.5,-71.9 920.5,-71.9"/>
</g>
<!-- tui_typer_tutor.core -->
<g id="node6" class="node">
<title>tui_typer_tutor.core</title>
<polygon fill="none" stroke="black" points="1137.12,-36 1013.88,-36 1013.88,0 1137.12,0 1137.12,-36"/>
<text text-anchor="middle" x="1075.5" y="-12.95" font-family="Times,serif" font-size="14.00">tui_typer_tutor.core</text>
</g>
<!-- tui_typer_tutor.core.config -->
<g id="node7" class="node">
<title>tui_typer_tutor.core.config</title>
<polygon fill="none" stroke="black" points="400.25,-108 238.75,-108 238.75,-72 400.25,-72 400.25,-108"/>
<text text-anchor="middle" x="319.5" y="-84.95" font-family="Times,serif" font-size="14.00">tui_typer_tutor.core.config</text>
</g>
<!-- tui_typer_tutor.core.metrics -->
<g id="node8" class="node">
<title>tui_typer_tutor.core.metrics</title>
<polygon fill="none" stroke="black" points="589.25,-36 421.75,-36 421.75,0 589.25,0 589.25,-36"/>
<text text-anchor="middle" x="505.5" y="-12.95" font-family="Times,serif" font-size="14.00">tui_typer_tutor.core.metrics</text>
</g>
<!-- tui_typer_tutor.core.typing -->
<g id="node11" class="node">
<title>tui_typer_tutor.core.typing</title>
<polygon fill="none" stroke="black" points="775.25,-108 613.75,-108 613.75,-72 775.25,-72 775.25,-108"/>
<text text-anchor="middle" x="694.5" y="-84.95" font-family="Times,serif" font-size="14.00">tui_typer_tutor.core.typing</text>
</g>
<!-- tui_typer_tutor.core.metrics&#45;&gt;tui_typer_tutor.core.typing -->
<g id="edge2" class="edge">
<title>tui_typer_tutor.core.metrics&#45;&gt;tui_typer_tutor.core.typing</title>
<path fill="none" stroke="black" d="M552.71,-36.48C578.74,-46.12 611.22,-58.16 638.52,-68.27"/>
<polygon fill="black" stroke="black" points="647.57,-71.62 636.63,-72.36 642.88,-69.88 638.19,-68.15 638.19,-68.15 638.19,-68.15 642.88,-69.88 639.75,-63.93 647.57,-71.62 647.57,-71.62"/>
</g>
<!-- tui_typer_tutor.core.uninstall -->
<g id="node12" class="node">
<title>tui_typer_tutor.core.uninstall</title>
<polygon fill="none" stroke="black" points="592.25,-108 418.75,-108 418.75,-72 592.25,-72 592.25,-108"/>
<text text-anchor="middle" x="505.5" y="-84.95" font-family="Times,serif" font-size="14.00">tui_typer_tutor.core.uninstall</text>
</g>
<!-- tui_typer_tutor.core.metrics&#45;&gt;tui_typer_tutor.core.uninstall -->
<g id="edge3" class="edge">
<title>tui_typer_tutor.core.metrics&#45;&gt;tui_typer_tutor.core.uninstall</title>
<path fill="none" stroke="black" d="M505.5,-36.3C505.5,-44.1 505.5,-53.49 505.5,-62.17"/>
<polygon fill="black" stroke="black" points="505.5,-71.9 501,-61.9 505.5,-66.9 505.5,-61.9 505.5,-61.9 505.5,-61.9 505.5,-66.9 510,-61.9 505.5,-71.9 505.5,-71.9"/>
</g>
<!-- tui_typer_tutor.core.scrolled_labels -->
<g id="node9" class="node">
<title>tui_typer_tutor.core.scrolled_labels</title>
<polygon fill="none" stroke="black" points="1363.5,-36 1155.5,-36 1155.5,0 1363.5,0 1363.5,-36"/>
<text text-anchor="middle" x="1259.5" y="-12.95" font-family="Times,serif" font-size="14.00">tui_typer_tutor.core.scrolled_labels</text>
</g>
<!-- tui_typer_tutor.core.seed_data -->
<g id="node10" class="node">
<title>tui_typer_tutor.core.seed_data</title>
<polygon fill="none" stroke="black" points="787.62,-36 607.38,-36 607.38,0 787.62,0 787.62,-36"/>
<text text-anchor="middle" x="697.5" y="-12.95" font-family="Times,serif" font-size="14.00">tui_typer_tutor.core.seed_data</text>
</g>
<!-- tui_typer_tutor.core.seed_data&#45;&gt;tui_typer_tutor.core.typing -->
<g id="edge4" class="edge">
<title>tui_typer_tutor.core.seed_data&#45;&gt;tui_typer_tutor.core.typing</title>
<path fill="none" stroke="black" d="M696.76,-36.3C696.42,-44.1 696.02,-53.49 695.65,-62.17"/>
<polygon fill="black" stroke="black" points="695.23,-71.9 691.17,-61.71 695.45,-66.9 695.66,-61.9 695.66,-61.9 695.66,-61.9 695.45,-66.9 700.16,-62.1 695.23,-71.9 695.23,-71.9"/>
</g>
<!-- tui_typer_tutor.screens -->
<g id="node13" class="node">
<title>tui_typer_tutor.screens</title>
<polygon fill="none" stroke="black" points="1521.38,-36 1381.62,-36 1381.62,0 1521.38,0 1521.38,-36"/>
<text text-anchor="middle" x="1451.5" y="-12.95" font-family="Times,serif" font-size="14.00">tui_typer_tutor.screens</text>
</g>
<!-- tui_typer_tutor.screens.help -->
<g id="node14" class="node">
<title>tui_typer_tutor.screens.help</title>
<polygon fill="none" stroke="black" points="1705.88,-36 1539.12,-36 1539.12,0 1705.88,0 1705.88,-36"/>
<text text-anchor="middle" x="1622.5" y="-12.95" font-family="Times,serif" font-size="14.00">tui_typer_tutor.screens.help</text>
</g>
<!-- tui_typer_tutor.screens.main -->
<g id="node15" class="node">
<title>tui_typer_tutor.screens.main</title>
<polygon fill="none" stroke="black" points="1895.12,-36 1723.88,-36 1723.88,0 1895.12,0 1895.12,-36"/>
<text text-anchor="middle" x="1809.5" y="-12.95" font-family="Times,serif" font-size="14.00">tui_typer_tutor.screens.main</text>
</g>
<!-- tui_typer_tutor.scripts -->
<g id="node16" class="node">
<title>tui_typer_tutor.scripts</title>
<polygon fill="none" stroke="black" points="387.12,-36 251.88,-36 251.88,0 387.12,0 387.12,-36"/>
<text text-anchor="middle" x="319.5" y="-12.95" font-family="Times,serif" font-size="14.00">tui_typer_tutor.scripts</text>
</g>
<!-- tui_typer_tutor.scripts&#45;&gt;tui_typer_tutor.app.ttt -->
<g id="edge5" class="edge">
<title>tui_typer_tutor.scripts&#45;&gt;tui_typer_tutor.app.ttt</title>
<path fill="none" stroke="black" d="M278.04,-36.48C255.57,-45.96 227.64,-57.74 203.92,-67.74"/>
<polygon fill="black" stroke="black" points="194.72,-71.62 202.19,-63.59 199.33,-69.68 203.93,-67.73 203.93,-67.73 203.93,-67.73 199.33,-69.68 205.68,-71.88 194.72,-71.62 194.72,-71.62"/>
</g>
<!-- tui_typer_tutor.scripts&#45;&gt;tui_typer_tutor.core.config -->
<g id="edge6" class="edge">
<title>tui_typer_tutor.scripts&#45;&gt;tui_typer_tutor.core.config</title>
<path fill="none" stroke="black" d="M319.5,-36.3C319.5,-44.1 319.5,-53.49 319.5,-62.17"/>
<polygon fill="black" stroke="black" points="319.5,-71.9 315,-61.9 319.5,-66.9 319.5,-61.9 319.5,-61.9 319.5,-61.9 319.5,-66.9 324,-61.9 319.5,-71.9 319.5,-71.9"/>
</g>
<!-- tui_typer_tutor.scripts&#45;&gt;tui_typer_tutor.core.uninstall -->
<g id="edge7" class="edge">
<title>tui_typer_tutor.scripts&#45;&gt;tui_typer_tutor.core.uninstall</title>
<path fill="none" stroke="black" d="M365.96,-36.48C391.46,-46.08 423.26,-58.05 450.06,-68.14"/>
<polygon fill="black" stroke="black" points="459.31,-71.62 448.37,-72.31 454.63,-69.86 449.96,-68.1 449.96,-68.1 449.96,-68.1 454.63,-69.86 451.54,-63.88 459.31,-71.62 459.31,-71.62"/>
</g>
</g>
</svg>
