<?xml version="1.0" encoding="UTF-8" standalone="no"?>
<!DOCTYPE svg PUBLIC "-//W3C//DTD SVG 1.1//EN"
 "http://www.w3.org/Graphics/SVG/1.1/DTD/svg11.dtd">
<!-- Generated by graphviz version 2.43.0 (0)
 -->
<!-- Title: packages Pages: 1 -->
<svg width="1931pt" height="116pt"
 viewBox="0.00 0.00 1930.50 116.00" xmlns="http://www.w3.org/2000/svg" xmlns:xlink="http://www.w3.org/1999/xlink">
<g id="graph0" class="graph" transform="scale(1 1) rotate(0) translate(4 112)">
<title>packages</title>
<polygon fill="white" stroke="transparent" points="-4,4 -4,-112 1926.5,-112 1926.5,4 -4,4"/>
<!-- tui_typer_tutor -->
<g id="node1" class="node">
<title>tui_typer_tutor</title>
<polygon fill="none" stroke="black" points="124,-36 0,-36 0,0 124,0 124,-36"/>
<text text-anchor="middle" x="62" y="-14.3" font-family="Times,serif" font-size="14.00">tui_typer_tutor</text>
</g>
<!-- tui_typer_tutor.app -->
<g id="node2" class="node">
<title>tui_typer_tutor.app</title>
<polygon fill="none" stroke="black" points="295.5,-36 142.5,-36 142.5,0 295.5,0 295.5,-36"/>
<text text-anchor="middle" x="219" y="-14.3" font-family="Times,serif" font-size="14.00">tui_typer_tutor.app</text>
</g>
<!-- tui_typer_tutor.app.ttt -->
<g id="node3" class="node">
<title>tui_typer_tutor.app.ttt</title>
<polygon fill="none" stroke="black" points="490,-108 314,-108 314,-72 490,-72 490,-108"/>
<text text-anchor="middle" x="402" y="-86.3" font-family="Times,serif" font-size="14.00">tui_typer_tutor.app.ttt</text>
</g>
<!-- tui_typer_tutor.constants -->
<g id="node4" class="node">
<title>tui_typer_tutor.constants</title>
<polygon fill="none" stroke="black" points="770,-36 574,-36 574,0 770,0 770,-36"/>
<text text-anchor="middle" x="672" y="-14.3" font-family="Times,serif" font-size="14.00">tui_typer_tutor.constants</text>
</g>
<!-- tui_typer_tutor.constants.display_to_textual -->
<g id="node5" class="node">
<title>tui_typer_tutor.constants.display_to_textual</title>
<polygon fill="none" stroke="black" points="836.5,-108 507.5,-108 507.5,-72 836.5,-72 836.5,-108"/>
<text text-anchor="middle" x="672" y="-86.3" font-family="Times,serif" font-size="14.00">tui_typer_tutor.constants.display_to_textual</text>
</g>
<!-- tui_typer_tutor.constants&#45;&gt;tui_typer_tutor.constants.display_to_textual -->
<g id="edge1" class="edge">
<title>tui_typer_tutor.constants&#45;&gt;tui_typer_tutor.constants.display_to_textual</title>
<path fill="none" stroke="black" d="M672,-36.3C672,-44.02 672,-53.29 672,-61.89"/>
<polygon fill="black" stroke="black" points="672,-71.9 667.5,-61.9 672,-66.9 672,-61.9 672,-61.9 672,-61.9 672,-66.9 676.5,-61.9 672,-71.9 672,-71.9"/>
</g>
<!-- tui_typer_tutor.core -->
<g id="node6" class="node">
<title>tui_typer_tutor.core</title>
<polygon fill="none" stroke="black" points="946,-36 788,-36 788,0 946,0 946,-36"/>
<text text-anchor="middle" x="867" y="-14.3" font-family="Times,serif" font-size="14.00">tui_typer_tutor.core</text>
</g>
<!-- tui_typer_tutor.core.scrolled_labels -->
<g id="node7" class="node">
<title>tui_typer_tutor.core.scrolled_labels</title>
<polygon fill="none" stroke="black" points="1231.5,-36 964.5,-36 964.5,0 1231.5,0 1231.5,-36"/>
<text text-anchor="middle" x="1098" y="-14.3" font-family="Times,serif" font-size="14.00">tui_typer_tutor.core.scrolled_labels</text>
</g>
<!-- tui_typer_tutor.core.seed_data -->
<g id="node8" class="node">
<title>tui_typer_tutor.core.seed_data</title>
<polygon fill="none" stroke="black" points="1482.5,-36 1249.5,-36 1249.5,0 1482.5,0 1482.5,-36"/>
<text text-anchor="middle" x="1366" y="-14.3" font-family="Times,serif" font-size="14.00">tui_typer_tutor.core.seed_data</text>
</g>
<!-- tui_typer_tutor.core.typing -->
<g id="node9" class="node">
<title>tui_typer_tutor.core.typing</title>
<polygon fill="none" stroke="black" points="1470,-108 1262,-108 1262,-72 1470,-72 1470,-108"/>
<text text-anchor="middle" x="1366" y="-86.3" font-family="Times,serif" font-size="14.00">tui_typer_tutor.core.typing</text>
</g>
<!-- tui_typer_tutor.core.seed_data&#45;&gt;tui_typer_tutor.core.typing -->
<g id="edge2" class="edge">
<title>tui_typer_tutor.core.seed_data&#45;&gt;tui_typer_tutor.core.typing</title>
<path fill="none" stroke="black" d="M1366,-36.3C1366,-44.02 1366,-53.29 1366,-61.89"/>
<polygon fill="black" stroke="black" points="1366,-71.9 1361.5,-61.9 1366,-66.9 1366,-61.9 1366,-61.9 1366,-61.9 1366,-66.9 1370.5,-61.9 1366,-71.9 1366,-71.9"/>
</g>
<!-- tui_typer_tutor.screens -->
<g id="node10" class="node">
<title>tui_typer_tutor.screens</title>
<polygon fill="none" stroke="black" points="1683,-36 1501,-36 1501,0 1683,0 1683,-36"/>
<text text-anchor="middle" x="1592" y="-14.3" font-family="Times,serif" font-size="14.00">tui_typer_tutor.screens</text>
</g>
<!-- tui_typer_tutor.screens.main -->
<g id="node11" class="node">
<title>tui_typer_tutor.screens.main</title>
<polygon fill="none" stroke="black" points="1922.5,-36 1701.5,-36 1701.5,0 1922.5,0 1922.5,-36"/>
<text text-anchor="middle" x="1812" y="-14.3" font-family="Times,serif" font-size="14.00">tui_typer_tutor.screens.main</text>
</g>
<!-- tui_typer_tutor.scripts -->
<g id="node12" class="node">
<title>tui_typer_tutor.scripts</title>
<polygon fill="none" stroke="black" points="490,-36 314,-36 314,0 490,0 490,-36"/>
<text text-anchor="middle" x="402" y="-14.3" font-family="Times,serif" font-size="14.00">tui_typer_tutor.scripts</text>
</g>
<!-- tui_typer_tutor.scripts&#45;&gt;tui_typer_tutor.app.ttt -->
<g id="edge3" class="edge">
<title>tui_typer_tutor.scripts&#45;&gt;tui_typer_tutor.app.ttt</title>
<path fill="none" stroke="black" d="M402,-36.3C402,-44.02 402,-53.29 402,-61.89"/>
<polygon fill="black" stroke="black" points="402,-71.9 397.5,-61.9 402,-66.9 402,-61.9 402,-61.9 402,-61.9 402,-66.9 406.5,-61.9 402,-71.9 402,-71.9"/>
</g>
</g>
</svg>
