<?xml version="1.0" encoding="UTF-8" standalone="no"?>
<!DOCTYPE svg PUBLIC "-//W3C//DTD SVG 1.1//EN"
 "http://www.w3.org/Graphics/SVG/1.1/DTD/svg11.dtd">
<!-- Generated by graphviz version 2.43.0 (0)
 -->
<!-- Title: packages Pages: 1 -->
<svg width="2402pt" height="116pt"
 viewBox="0.00 0.00 2401.50 116.00" xmlns="http://www.w3.org/2000/svg" xmlns:xlink="http://www.w3.org/1999/xlink">
<g id="graph0" class="graph" transform="scale(1 1) rotate(0) translate(4 112)">
<title>packages</title>
<polygon fill="white" stroke="transparent" points="-4,4 -4,-112 2397.5,-112 2397.5,4 -4,4"/>
<!-- tui_typer_tutor -->
<g id="node1" class="node">
<title>tui_typer_tutor</title>
<polygon fill="none" stroke="black" points="124,-36 0,-36 0,0 124,0 124,-36"/>
<text text-anchor="middle" x="62" y="-14.3" font-family="Times,serif" font-size="14.00">tui_typer_tutor</text>
</g>
<!-- tui_typer_tutor.app -->
<g id="node2" class="node">
<title>tui_typer_tutor.app</title>
<polygon fill="none" stroke="black" points="295.5,-36 142.5,-36 142.5,0 295.5,0 295.5,-36"/>
<text text-anchor="middle" x="219" y="-14.3" font-family="Times,serif" font-size="14.00">tui_typer_tutor.app</text>
</g>
<!-- tui_typer_tutor.app.ttt -->
<g id="node3" class="node">
<title>tui_typer_tutor.app.ttt</title>
<polygon fill="none" stroke="black" points="282,-108 106,-108 106,-72 282,-72 282,-108"/>
<text text-anchor="middle" x="194" y="-86.3" font-family="Times,serif" font-size="14.00">tui_typer_tutor.app.ttt</text>
</g>
<!-- tui_typer_tutor.constants -->
<g id="node4" class="node">
<title>tui_typer_tutor.constants</title>
<polygon fill="none" stroke="black" points="1257,-36 1061,-36 1061,0 1257,0 1257,-36"/>
<text text-anchor="middle" x="1159" y="-14.3" font-family="Times,serif" font-size="14.00">tui_typer_tutor.constants</text>
</g>
<!-- tui_typer_tutor.constants.display_to_textual -->
<g id="node5" class="node">
<title>tui_typer_tutor.constants.display_to_textual</title>
<polygon fill="none" stroke="black" points="1323.5,-108 994.5,-108 994.5,-72 1323.5,-72 1323.5,-108"/>
<text text-anchor="middle" x="1159" y="-86.3" font-family="Times,serif" font-size="14.00">tui_typer_tutor.constants.display_to_textual</text>
</g>
<!-- tui_typer_tutor.constants&#45;&gt;tui_typer_tutor.constants.display_to_textual -->
<g id="edge1" class="edge">
<title>tui_typer_tutor.constants&#45;&gt;tui_typer_tutor.constants.display_to_textual</title>
<path fill="none" stroke="black" d="M1159,-36.3C1159,-44.02 1159,-53.29 1159,-61.89"/>
<polygon fill="black" stroke="black" points="1159,-71.9 1154.5,-61.9 1159,-66.9 1159,-61.9 1159,-61.9 1159,-61.9 1159,-66.9 1163.5,-61.9 1159,-71.9 1159,-71.9"/>
</g>
<!-- tui_typer_tutor.core -->
<g id="node6" class="node">
<title>tui_typer_tutor.core</title>
<polygon fill="none" stroke="black" points="1433,-36 1275,-36 1275,0 1433,0 1433,-36"/>
<text text-anchor="middle" x="1354" y="-14.3" font-family="Times,serif" font-size="14.00">tui_typer_tutor.core</text>
</g>
<!-- tui_typer_tutor.core.config -->
<g id="node7" class="node">
<title>tui_typer_tutor.core.config</title>
<polygon fill="none" stroke="black" points="504.5,-108 299.5,-108 299.5,-72 504.5,-72 504.5,-108"/>
<text text-anchor="middle" x="402" y="-86.3" font-family="Times,serif" font-size="14.00">tui_typer_tutor.core.config</text>
</g>
<!-- tui_typer_tutor.core.metrics -->
<g id="node8" class="node">
<title>tui_typer_tutor.core.metrics</title>
<polygon fill="none" stroke="black" points="742,-36 526,-36 526,0 742,0 742,-36"/>
<text text-anchor="middle" x="634" y="-14.3" font-family="Times,serif" font-size="14.00">tui_typer_tutor.core.metrics</text>
</g>
<!-- tui_typer_tutor.core.typing -->
<g id="node11" class="node">
<title>tui_typer_tutor.core.typing</title>
<polygon fill="none" stroke="black" points="976,-108 768,-108 768,-72 976,-72 976,-108"/>
<text text-anchor="middle" x="872" y="-86.3" font-family="Times,serif" font-size="14.00">tui_typer_tutor.core.typing</text>
</g>
<!-- tui_typer_tutor.core.metrics&#45;&gt;tui_typer_tutor.core.typing -->
<g id="edge2" class="edge">
<title>tui_typer_tutor.core.metrics&#45;&gt;tui_typer_tutor.core.typing</title>
<path fill="none" stroke="black" d="M691.92,-36.03C725.75,-45.99 768.62,-58.59 804.04,-69.01"/>
<polygon fill="black" stroke="black" points="813.82,-71.89 802.96,-73.38 809.03,-70.48 804.23,-69.07 804.23,-69.07 804.23,-69.07 809.03,-70.48 805.5,-64.75 813.82,-71.89 813.82,-71.89"/>
</g>
<!-- tui_typer_tutor.core.uninstall -->
<g id="node12" class="node">
<title>tui_typer_tutor.core.uninstall</title>
<polygon fill="none" stroke="black" points="746,-108 522,-108 522,-72 746,-72 746,-108"/>
<text text-anchor="middle" x="634" y="-86.3" font-family="Times,serif" font-size="14.00">tui_typer_tutor.core.uninstall</text>
</g>
<!-- tui_typer_tutor.core.metrics&#45;&gt;tui_typer_tutor.core.uninstall -->
<g id="edge3" class="edge">
<title>tui_typer_tutor.core.metrics&#45;&gt;tui_typer_tutor.core.uninstall</title>
<path fill="none" stroke="black" d="M634,-36.3C634,-44.02 634,-53.29 634,-61.89"/>
<polygon fill="black" stroke="black" points="634,-71.9 629.5,-61.9 634,-66.9 634,-61.9 634,-61.9 634,-61.9 634,-66.9 638.5,-61.9 634,-71.9 634,-71.9"/>
</g>
<!-- tui_typer_tutor.core.scrolled_labels -->
<g id="node9" class="node">
<title>tui_typer_tutor.core.scrolled_labels</title>
<polygon fill="none" stroke="black" points="1718.5,-36 1451.5,-36 1451.5,0 1718.5,0 1718.5,-36"/>
<text text-anchor="middle" x="1585" y="-14.3" font-family="Times,serif" font-size="14.00">tui_typer_tutor.core.scrolled_labels</text>
</g>
<!-- tui_typer_tutor.core.seed_data -->
<g id="node10" class="node">
<title>tui_typer_tutor.core.seed_data</title>
<polygon fill="none" stroke="black" points="993.5,-36 760.5,-36 760.5,0 993.5,0 993.5,-36"/>
<text text-anchor="middle" x="877" y="-14.3" font-family="Times,serif" font-size="14.00">tui_typer_tutor.core.seed_data</text>
</g>
<!-- tui_typer_tutor.core.seed_data&#45;&gt;tui_typer_tutor.core.typing -->
<g id="edge4" class="edge">
<title>tui_typer_tutor.core.seed_data&#45;&gt;tui_typer_tutor.core.typing</title>
<path fill="none" stroke="black" d="M875.76,-36.3C875.21,-44.02 874.55,-53.29 873.94,-61.89"/>
<polygon fill="black" stroke="black" points="873.22,-71.9 869.45,-61.6 873.58,-66.91 873.93,-61.92 873.93,-61.92 873.93,-61.92 873.58,-66.91 878.42,-62.24 873.22,-71.9 873.22,-71.9"/>
</g>
<!-- tui_typer_tutor.screens -->
<g id="node13" class="node">
<title>tui_typer_tutor.screens</title>
<polygon fill="none" stroke="black" points="1919,-36 1737,-36 1737,0 1919,0 1919,-36"/>
<text text-anchor="middle" x="1828" y="-14.3" font-family="Times,serif" font-size="14.00">tui_typer_tutor.screens</text>
</g>
<!-- tui_typer_tutor.screens.help -->
<g id="node14" class="node">
<title>tui_typer_tutor.screens.help</title>
<polygon fill="none" stroke="black" points="2154.5,-36 1937.5,-36 1937.5,0 2154.5,0 2154.5,-36"/>
<text text-anchor="middle" x="2046" y="-14.3" font-family="Times,serif" font-size="14.00">tui_typer_tutor.screens.help</text>
</g>
<!-- tui_typer_tutor.screens.main -->
<g id="node15" class="node">
<title>tui_typer_tutor.screens.main</title>
<polygon fill="none" stroke="black" points="2393.5,-36 2172.5,-36 2172.5,0 2393.5,0 2393.5,-36"/>
<text text-anchor="middle" x="2283" y="-14.3" font-family="Times,serif" font-size="14.00">tui_typer_tutor.screens.main</text>
</g>
<!-- tui_typer_tutor.scripts -->
<g id="node16" class="node">
<title>tui_typer_tutor.scripts</title>
<polygon fill="none" stroke="black" points="490,-36 314,-36 314,0 490,0 490,-36"/>
<text text-anchor="middle" x="402" y="-14.3" font-family="Times,serif" font-size="14.00">tui_typer_tutor.scripts</text>
</g>
<!-- tui_typer_tutor.scripts&#45;&gt;tui_typer_tutor.app.ttt -->
<g id="edge5" class="edge">
<title>tui_typer_tutor.scripts&#45;&gt;tui_typer_tutor.app.ttt</title>
<path fill="none" stroke="black" d="M351.38,-36.03C322.19,-45.86 285.31,-58.27 254.58,-68.61"/>
<polygon fill="black" stroke="black" points="244.84,-71.89 252.89,-64.43 249.58,-70.29 254.32,-68.7 254.32,-68.7 254.32,-68.7 249.58,-70.29 255.76,-72.96 244.84,-71.89 244.84,-71.89"/>
</g>
<!-- tui_typer_tutor.scripts&#45;&gt;tui_typer_tutor.core.config -->
<g id="edge6" class="edge">
<title>tui_typer_tutor.scripts&#45;&gt;tui_typer_tutor.core.config</title>
<path fill="none" stroke="black" d="M402,-36.3C402,-44.02 402,-53.29 402,-61.89"/>
<polygon fill="black" stroke="black" points="402,-71.9 397.5,-61.9 402,-66.9 402,-61.9 402,-61.9 402,-61.9 402,-66.9 406.5,-61.9 402,-71.9 402,-71.9"/>
</g>
<!-- tui_typer_tutor.scripts&#45;&gt;tui_typer_tutor.core.uninstall -->
<g id="edge7" class="edge">
<title>tui_typer_tutor.scripts&#45;&gt;tui_typer_tutor.core.uninstall</title>
<path fill="none" stroke="black" d="M458.46,-36.03C491.3,-45.94 532.87,-58.49 567.31,-68.88"/>
<polygon fill="black" stroke="black" points="577.29,-71.89 566.42,-73.31 572.5,-70.44 567.72,-69 567.72,-69 567.72,-69 572.5,-70.44 569.02,-64.69 577.29,-71.89 577.29,-71.89"/>
</g>
</g>
</svg>
